<svg width="72" height="72" viewBox="0 0 72 72" fill="none" xmlns="http://www.w3.org/2000/svg">
<path d="M36.1844 72C35.8094 72 35.3594 72 34.9844 71.85L12.3344 65.55C10.5344 65.025 9.25938 63.45 9.03438 61.65L4.00938 4.95C3.93438 3.675 4.30938 2.475 5.13438 1.5C5.95938 0.6 7.15937 0 8.43437 0H64.0094C65.2844 0 66.4844 0.525 67.3094 1.5C68.1344 2.4 68.5844 3.675 68.4344 4.95L63.4094 61.65C63.2594 63.525 61.9094 65.1 60.1094 65.55L37.3844 71.85C37.0094 71.925 36.5594 72 36.1844 72Z" fill="white"/>
<path d="M13.4625 61.2L8.4375 4.5H64.0125L58.9875 61.2L36.2625 67.5L13.6125 61.2H13.4625Z" fill="#264DE4"/>
<path d="M54.5547 57.6063L58.9047 9.15625H36.1797V62.7063L54.5547 57.6063Z" fill="#2965F1"/>
<path d="M19.9703 30.143L20.5703 37.118H36.0953V30.143H19.8953H19.9703ZM19.3703 23.018H36.1703V16.043H18.6953L19.2953 23.018H19.3703ZM36.1703 48.218L28.4453 46.118L27.9203 40.568H20.9453L21.9203 51.518L36.1703 55.493V48.218Z" fill="#EBEBEB"/>
<path d="M36.1797 30.1555V37.1305H44.7297L43.9047 46.1305L36.1797 48.2305V55.4305L50.4297 51.4555V50.2555C50.5047 50.2555 52.1547 31.9555 52.1547 31.9555L52.3047 30.0805L53.5797 15.9805H36.1797V22.9555H46.0047L45.4047 30.0805H36.2547L36.1797 30.1555Z" fill="white"/>
</svg>
