<svg width="72" height="72" viewBox="0 0 72 72" fill="none" xmlns="http://www.w3.org/2000/svg">
<g clip-path="url(#clip0_58_852)">
<path d="M67.5 0H4.5C2.01472 0 0 2.01472 0 4.5V67.5C0 69.9853 2.01472 72 4.5 72H67.5C69.9853 72 72 69.9853 72 67.5V4.5C72 2.01472 69.9853 0 67.5 0Z" fill="white"/>
<path d="M67.5 4.5H4.5V67.5H67.5V4.5Z" fill="black"/>
</g>
<g clip-path="url(#clip1_58_852)">
<path d="M35.959 35.7212C35.959 32.1929 38.9148 29.3336 42.559 29.3336H43.5136C43.5396 29.3344 43.5682 29.3328 43.5951 29.3328C47.6841 29.3328 50.9997 32.5429 50.9997 36.5C50.9997 40.4571 47.6841 43.6664 43.5951 43.6664C43.5682 43.6664 43.5396 43.6655 43.5127 43.6655L42.559 43.6664C38.9148 43.6664 35.959 40.8054 35.959 37.278V35.7212Z" fill="#00B6FF"/>
<path d="M21 50.8346C21 46.8766 24.3156 43.6665 28.4046 43.6665L35.9592 43.6673V50.7607C35.9592 54.7598 32.5725 58.0001 28.441 58.0001C24.3529 58.0001 21 54.7917 21 50.8346Z" fill="#24CB71"/>
<path d="M35.959 15.0008V29.3336H43.5136C43.5396 29.3328 43.5682 29.3345 43.5951 29.3345C47.6841 29.3345 50.9997 26.1243 50.9997 22.1672C50.9997 18.2093 47.6841 15 43.5951 15C43.5682 15 43.5396 15.0008 43.5127 15.0008H35.959Z" fill="#FF7237"/>
<path d="M21 22.1668C21 26.1247 24.3156 29.334 28.4046 29.334H35.9592V15.0012H28.4038C24.3156 15.0012 21 18.2097 21 22.1668Z" fill="#FF3737"/>
<path d="M21 36.5C21 40.4579 24.3156 43.6672 28.4046 43.6672H35.9592V29.3345H28.4038C24.3156 29.3345 21 32.5429 21 36.5Z" fill="#874FFF"/>
</g>
<defs>
<clipPath id="clip0_58_852">
<rect width="72" height="72" fill="white"/>
</clipPath>
<clipPath id="clip1_58_852">
<rect width="30" height="43" fill="white" transform="translate(21 15)"/>
</clipPath>
</defs>
</svg>
