<svg width="72" height="72" viewBox="0 0 72 72" fill="none" xmlns="http://www.w3.org/2000/svg">
<path d="M36.3483 71.8425C34.8483 71.8425 33.3558 71.4676 32.0808 70.7176L11.8758 59.4163L11.5758 59.2663C11.0508 58.9664 10.5258 58.6664 10.1508 58.2164C9.17584 57.0915 8.80084 55.6742 9.10084 54.2493L16.8108 5.01698C17.1858 2.54973 19.1283 0.524945 21.6033 0.0749922H21.6783C21.9783 0.0749922 22.3533 0 22.6533 0C23.5533 0 24.4533 0.224977 25.1958 0.599937C26.3208 1.12488 27.2883 2.02479 27.8883 3.14217L31.9308 10.7764C33.0558 9.5765 34.6233 8.83408 36.2733 8.83408C37.9233 8.83408 36.2733 8.83408 36.3483 8.83408C38.5158 8.83408 40.4658 10.1089 41.5158 11.9763L44.5083 17.6607L47.5758 14.5935C48.4008 13.7686 49.3758 13.2436 50.4183 13.0186C50.8683 12.9437 51.3183 12.8687 51.7683 12.8687C52.2183 12.8687 51.9183 12.8687 51.9933 12.8687C52.5183 12.8687 53.1183 13.0186 53.6433 13.1686C55.7358 13.8436 57.3108 15.6359 57.6858 17.8106L63.5958 54.5568C63.8958 56.2066 63.2208 57.849 61.8708 58.8989C61.7958 58.8989 61.6458 59.0488 61.5708 59.1238C61.4958 59.1238 61.4208 59.1988 61.2708 59.2738L40.4658 70.8751C39.1908 71.625 37.6983 72 36.1983 72L36.3483 71.85V71.8425Z" fill="white"/>
<path d="M13.5859 55.2902L21.2959 5.75034C21.3709 5.1504 21.8959 4.62546 22.4959 4.55047C23.0959 4.47547 23.6959 4.77544 23.9959 5.30039L32.0059 20.1938L35.2234 14.1345C35.4484 13.6845 35.9734 13.3845 36.4984 13.3845C37.0234 13.3845 37.5484 13.6845 37.7734 14.1345L59.4034 55.2227H13.6609L13.5859 55.2977V55.2902Z" fill="#FFA000"/>
<path d="M40.3084 35.9769L31.9984 20.1836L13.5859 55.2124L40.3084 35.902V35.9769Z" fill="#F57C00"/>
<path d="M59.3244 55.2949L53.4144 18.6238C53.3394 18.0988 52.9644 17.6489 52.4394 17.4989C51.9144 17.3489 51.3894 17.4989 51.0144 17.8738L13.6719 55.2949L34.3269 66.8962C35.6019 67.6461 37.1694 67.6461 38.5194 66.8962L59.3994 55.2949H59.3244Z" fill="#FFCA28"/>
<path d="M53.3331 18.6221C53.2581 18.0972 52.8831 17.6472 52.3581 17.4973C51.8331 17.3473 51.3081 17.4973 50.9331 17.8722L43.5231 25.2814L37.6881 14.2051C37.4631 13.7551 36.9381 13.4552 36.4131 13.4552C35.8881 13.4552 35.3631 13.7551 35.1381 14.2051L31.9206 20.2645L23.9181 5.37851C23.6181 4.85357 23.0181 4.5536 22.4181 4.62859C21.8181 4.70358 21.3681 5.22853 21.2181 5.82847L13.5156 55.3683L13.7406 55.5183L50.9406 18.3222C51.3156 17.9472 51.9156 17.7972 52.3656 17.9472C52.8156 18.0972 53.2656 18.5471 53.3406 19.0721L59.2506 55.4433L53.3406 18.6971V18.6221H53.3331ZM13.6656 55.2183L21.3006 6.12843C21.3756 5.5285 21.9006 5.00355 22.5006 4.92856C23.1006 4.85357 23.7006 5.15354 24.0006 5.67848L32.0106 20.5719L35.2281 14.5126C35.4531 14.0626 35.9781 13.7626 36.5031 13.7626C37.0281 13.7626 37.5531 14.0626 37.7781 14.5126L43.4631 25.3639L13.6656 55.2183Z" fill="white" fill-opacity="0.4"/>
<path opacity="0.2" d="M38.4334 66.5153C37.1584 67.2653 35.5909 67.2653 34.2409 66.5153L13.5859 54.9141V55.214L34.2409 66.8153C35.5159 67.5652 37.0834 67.5652 38.4334 66.8153L59.3134 55.214V54.9141L38.4334 66.5153Z" fill="#A52714"/>
<path d="M53.3284 18.6221C53.2534 18.0972 52.8784 17.6472 52.3534 17.4972C51.8284 17.3473 51.3034 17.4972 50.9284 17.8722L43.5184 25.2814L37.6834 14.2051C37.4584 13.7551 36.9334 13.4552 36.4084 13.4552C35.8834 13.4552 35.3584 13.7551 35.1334 14.2051L31.9909 20.2645L23.9884 5.37851C23.6884 4.85357 23.0884 4.5536 22.4884 4.62859C21.8884 4.70358 21.4384 5.22853 21.2884 5.82847L13.5859 55.2933L34.1659 66.8946C35.4409 67.6445 37.0084 67.6445 38.3584 66.8946L59.1634 55.2933L53.2534 18.6221H53.3284Z" fill="url(#paint0_linear_2282_550)"/>
<defs>
<linearGradient id="paint0_linear_2282_550" x1="10.5709" y1="18.2622" x2="67.0337" y2="41.6625" gradientUnits="userSpaceOnUse">
<stop stop-color="white" stop-opacity="0.1"/>
<stop offset="0.1" stop-color="white" stop-opacity="0"/>
<stop offset="0.6" stop-color="white" stop-opacity="0"/>
<stop offset="1" stop-color="white" stop-opacity="0"/>
</linearGradient>
</defs>
</svg>
