<svg width="72" height="72" viewBox="0 0 72 72" fill="none" xmlns="http://www.w3.org/2000/svg">
<path d="M36.1844 72C35.8094 72 35.3594 72 34.9844 71.85L12.3344 65.55C10.5344 65.025 9.18438 63.45 9.03438 61.65L4.00938 4.95C3.93437 3.675 4.30938 2.475 5.13438 1.5C5.95938 0.525 7.15938 0 8.43438 0H64.0094C65.2844 0 66.4844 0.525 67.3094 1.5C68.1344 2.475 68.5844 3.675 68.4344 4.95L63.4094 61.65C63.2594 63.525 61.9094 65.1 60.1094 65.55L37.3094 71.85C36.9344 71.925 36.4844 72 36.1094 72H36.1844Z" fill="white"/>
<path d="M13.5406 61.2L8.51562 4.5H64.0906L59.0656 61.2L36.2656 67.5" fill="#E44D26"/>
<path d="M36.2656 62.6945V9.14453H58.9906L54.6406 57.5195" fill="#F16529"/>
<path d="M18.7969 16.125H36.2719V23.1H26.4469L27.1219 30.225H36.3469V37.125H20.8219M21.0469 40.575H28.0219L28.5469 46.125L36.3469 48.225V55.5L22.0969 51.525" fill="#EBEBEB"/>
<path d="M53.6703 16.125H36.2703V23.1H53.0703M52.3953 30.15H36.2703V37.125H44.8203L43.9953 46.125L36.1953 48.225V55.425L50.4453 51.45" fill="white"/>
</svg>
