<svg width="72" height="72" viewBox="0 0 72 72" fill="none" xmlns="http://www.w3.org/2000/svg">
<g clip-path="url(#clip0_58_893)">
<path d="M67.5 0H4.5C2.01472 0 0 2.01472 0 4.5V67.5C0 69.9853 2.01472 72 4.5 72H67.5C69.9853 72 72 69.9853 72 67.5V4.5C72 2.01472 69.9853 0 67.5 0Z" fill="white"/>
<path d="M67.5 4.5H4.5V67.5H67.5V4.5Z" fill="#330000"/>
</g>
<path d="M25.1896 48H19.4226L28.2099 22.5455H35.1452L43.9201 48H38.1531L31.777 28.3622H31.5781L25.1896 48ZM24.8292 37.9947H38.4514V42.1957H24.8292V37.9947ZM46.9869 48V28.9091H52.2817V48H46.9869ZM49.6468 26.4482C48.8596 26.4482 48.1843 26.1871 47.6208 25.6651C47.0657 25.1348 46.7881 24.5009 46.7881 23.7635C46.7881 23.0343 47.0657 22.4087 47.6208 21.8867C48.1843 21.3564 48.8596 21.0913 49.6468 21.0913C50.4339 21.0913 51.1051 21.3564 51.6602 21.8867C52.2237 22.4087 52.5054 23.0343 52.5054 23.7635C52.5054 24.5009 52.2237 25.1348 51.6602 25.6651C51.1051 26.1871 50.4339 26.4482 49.6468 26.4482Z" fill="#FF9A00"/>
<defs>
<clipPath id="clip0_58_893">
<rect width="72" height="72" fill="white"/>
</clipPath>
</defs>
</svg>
