<svg width="72" height="72" viewBox="0 0 72 72" fill="none" xmlns="http://www.w3.org/2000/svg">
<g clip-path="url(#clip0_58_853)">
<path d="M67.5 0H4.5C2.01472 0 0 2.01472 0 4.5V67.5C0 69.9853 2.01472 72 4.5 72H67.5C69.9853 72 72 69.9853 72 67.5V4.5C72 2.01472 69.9853 0 67.5 0Z" fill="white"/>
<path d="M67.5 4.5H4.5V67.5H67.5V4.5Z" fill="#49021F"/>
</g>
<path d="M27.0638 22.5455V48H21.6821V22.5455H27.0638ZM38.427 48.3107C36.977 48.3107 35.6636 47.9379 34.487 47.1921C33.3187 46.4381 32.3907 45.3319 31.7029 43.8736C31.0235 42.407 30.6838 40.6089 30.6838 38.4794C30.6838 36.2919 31.0359 34.4731 31.7402 33.0231C32.4445 31.5647 33.3809 30.4751 34.5492 29.7543C35.7258 29.0251 37.0143 28.6605 38.4146 28.6605C39.4835 28.6605 40.3742 28.8428 41.0868 29.2074C41.8077 29.5637 42.3877 30.0111 42.8269 30.5497C43.2743 31.08 43.6141 31.602 43.8461 32.1158H44.0076V22.5455H49.29V48H44.0698V44.9425H43.8461C43.5975 45.4728 43.2453 45.9989 42.7896 46.521C42.3422 47.0347 41.758 47.4614 41.0371 47.8011C40.3245 48.1409 39.4545 48.3107 38.427 48.3107ZM40.1049 44.0973C40.9584 44.0973 41.6793 43.8653 42.2676 43.4013C42.8642 42.929 43.3199 42.2702 43.6348 41.4251C43.9579 40.5799 44.1195 39.5897 44.1195 38.4545C44.1195 37.3194 43.9621 36.3333 43.6472 35.4964C43.3323 34.6596 42.8766 34.0133 42.28 33.5575C41.6834 33.1018 40.9584 32.8739 40.1049 32.8739C39.2349 32.8739 38.5016 33.1101 37.905 33.5824C37.3084 34.0547 36.8568 34.7093 36.5502 35.5462C36.2437 36.383 36.0904 37.3525 36.0904 38.4545C36.0904 39.5649 36.2437 40.5468 36.5502 41.4002C36.8651 42.2454 37.3167 42.9083 37.905 43.3888C38.5016 43.8612 39.2349 44.0973 40.1049 44.0973Z" fill="#FF3366"/>
<defs>
<clipPath id="clip0_58_853">
<rect width="72" height="72" fill="white"/>
</clipPath>
</defs>
</svg>
