<svg width="72" height="72" viewBox="0 0 72 72" fill="none" xmlns="http://www.w3.org/2000/svg">
<g clip-path="url(#clip0_2282_557)">
<path d="M67.5 0H4.5C2.01472 0 0 2.01472 0 4.5V67.5C0 69.9853 2.01472 72 4.5 72H67.5C69.9853 72 72 69.9853 72 67.5V4.5C72 2.01472 69.9853 0 67.5 0Z" fill="white"/>
<path d="M67.5 4.5H4.5V67.5H67.5V4.5Z" fill="#F7DF1E"/>
<path d="M46.7875 53.7023C48.0625 55.8023 49.7125 57.3023 52.6375 57.3023C55.5625 57.3023 56.6875 56.1023 56.6875 54.3773C56.6875 52.6523 55.1125 51.6023 52.4125 50.4773L50.9125 49.8773C46.6375 48.0773 43.7875 45.7523 43.7875 40.9523C43.7875 36.1523 47.1625 33.1523 52.4875 33.1523C57.8125 33.1523 58.9375 34.4273 60.8875 37.8773L56.3125 40.8023C55.2625 39.0023 54.2125 38.2523 52.4875 38.2523C50.7625 38.2523 49.6375 39.3773 49.6375 40.8023C49.6375 42.2273 50.7625 43.2773 53.3125 44.4023L54.8125 45.0023C59.8375 47.1773 62.6875 49.3523 62.6875 54.3023C62.6875 59.2523 58.4875 62.5523 52.8625 62.5523C47.2375 62.5523 43.7875 59.9273 42.0625 56.4773L46.8625 53.7023H46.7875ZM25.8625 54.2273C26.7625 55.8773 27.6625 57.3023 29.6875 57.3023C31.7125 57.3023 32.8375 56.5523 32.8375 53.5523V33.4523H38.7625V53.6273C38.7625 59.7773 35.1625 62.5523 29.9125 62.5523C24.6625 62.5523 22.4125 60.0773 21.0625 57.1523L25.8625 54.2273Z" fill="black"/>
</g>
<defs>
<clipPath id="clip0_2282_557">
<rect width="72" height="72" fill="white"/>
</clipPath>
</defs>
</svg>
