<svg width="72" height="72" viewBox="0 0 72 72" fill="none" xmlns="http://www.w3.org/2000/svg">
<path d="M35.852 72C35.102 72 34.352 71.85 33.677 71.4L8.85199 57.6C7.57699 56.925 6.75199 55.65 6.52699 54.15L2.02699 15.45C1.80199 13.35 3.00199 11.4 4.95199 10.725L34.352 0.225C34.877 0.075 35.327 0 35.852 0C36.377 0 36.902 0.075 37.352 0.225L66.677 10.65C68.627 11.325 69.902 13.35 69.602 15.375L65.102 54.15C64.952 55.575 64.052 56.85 62.777 57.6L37.952 71.4C37.277 71.775 36.527 72 35.777 72H35.852Z" fill="white"/>
<path d="M35.8406 4.5L6.51562 14.925L11.0156 53.7L35.8406 67.5L60.6656 53.7L65.1656 14.925L35.8406 4.5Z" fill="#DD0031"/>
<path d="M35.8359 4.5V11.475V43.35V67.5L60.6609 53.7L65.1609 14.925L35.8359 4.5Z" fill="#C3002F"/>
<path d="M35.8469 11.4805L17.5469 52.5805H24.3719L28.0469 43.3555H43.5719L47.2469 52.5805H54.0719L35.8469 11.4805ZM41.1719 37.7305H30.4469L35.7719 24.8305L41.0969 37.7305H41.1719Z" fill="white"/>
</svg>
