<svg width="72" height="72" viewBox="0 0 72 72" fill="none" xmlns="http://www.w3.org/2000/svg">
<g clip-path="url(#clip0_58_871)">
<path d="M67.5 0H4.5C2.01472 0 0 2.01472 0 4.5V67.5C0 69.9853 2.01472 72 4.5 72H67.5C69.9853 72 72 69.9853 72 67.5V4.5C72 2.01472 69.9853 0 67.5 0Z" fill="white"/>
<path d="M67.5 4.5H4.5V67.5H67.5V4.5Z" fill="#001E36"/>
</g>
<path d="M17.5551 48V22.5455H27.5977C29.5284 22.5455 31.1731 22.9142 32.532 23.6516C33.891 24.3808 34.9267 25.3958 35.6393 26.6967C36.3602 27.9893 36.7206 29.4808 36.7206 31.1712C36.7206 32.8615 36.356 34.353 35.6269 35.6456C34.8977 36.9382 33.8412 37.945 32.4575 38.6658C31.082 39.3867 29.4165 39.7472 27.461 39.7472H21.0601V35.4343H26.591C27.6267 35.4343 28.4802 35.2562 29.1514 34.8999C29.8308 34.5353 30.3363 34.034 30.6677 33.396C31.0074 32.7496 31.1773 32.008 31.1773 31.1712C31.1773 30.326 31.0074 29.5885 30.6677 28.9588C30.3363 28.3208 29.8308 27.8278 29.1514 27.4798C28.4719 27.1235 27.6102 26.9453 26.5661 26.9453H22.9369V48H17.5551ZM56.0011 34.353L51.1538 34.6513C51.0709 34.237 50.8928 33.8641 50.6193 33.5327C50.3459 33.1929 49.9854 32.9237 49.538 32.7248C49.0988 32.5176 48.5727 32.4141 47.9595 32.4141C47.1392 32.4141 46.4473 32.5881 45.8839 32.9361C45.3204 33.2758 45.0387 33.7315 45.0387 34.3033C45.0387 34.759 45.221 35.1443 45.5856 35.4592C45.9502 35.774 46.5758 36.0268 47.4624 36.2173L50.9176 36.9134C52.7737 37.2945 54.1574 37.9077 55.0689 38.7528C55.9804 39.598 56.4361 40.7083 56.4361 42.0838C56.4361 43.335 56.0674 44.4329 55.3299 45.3775C54.6007 46.3221 53.5981 47.0595 52.3221 47.5898C51.0543 48.1119 49.5919 48.3729 47.9347 48.3729C45.4074 48.3729 43.3939 47.8467 41.8942 46.7944C40.4027 45.7338 39.5285 44.292 39.2717 42.4691L44.4794 42.1957C44.6368 42.9663 45.018 43.5546 45.6229 43.9606C46.2277 44.3583 47.0025 44.5572 47.9471 44.5572C48.8751 44.5572 49.6209 44.379 50.1843 44.0227C50.756 43.6581 51.046 43.19 51.0543 42.6183C51.046 42.1377 50.843 41.7441 50.4453 41.4375C50.0476 41.1226 49.4344 40.8823 48.6058 40.7166L45.2997 40.0579C43.4354 39.685 42.0475 39.0387 41.136 38.119C40.2328 37.1992 39.7812 36.0268 39.7812 34.6016C39.7812 33.3752 40.1127 32.3188 40.7756 31.4322C41.4467 30.5456 42.3872 29.862 43.5969 29.3814C44.815 28.9008 46.2402 28.6605 47.8725 28.6605C50.2837 28.6605 52.1812 29.1701 53.565 30.1893C54.957 31.2085 55.7691 32.5964 56.0011 34.353Z" fill="#31A8FF"/>
<defs>
<clipPath id="clip0_58_871">
<rect width="72" height="72" fill="white"/>
</clipPath>
</defs>
</svg>
