<svg width="72" height="72" viewBox="0 0 72 72" fill="none" xmlns="http://www.w3.org/2000/svg">
<g clip-path="url(#clip0_57923_2774)">
<path d="M49.1009 68.7885C45.3991 68.7885 41.2826 66.965 36.8687 63.3729C36.5791 63.1381 36.2896 62.8876 35.9843 62.6294C35.687 62.8876 35.3896 63.1381 35.1078 63.365C30.6861 66.965 26.5696 68.7885 22.8678 68.7885C21.0678 68.7885 19.4243 68.3581 17.9687 67.4972C15.3704 65.9946 11.2383 61.7842 13.0383 50.6085C13.1009 50.225 13.1713 49.8259 13.2496 49.4111C4.68 46.3746 0 41.7807 0 36.3103C0 30.8398 4.78957 26.1989 13.2574 23.1937C13.1791 22.7946 13.1087 22.4033 13.0461 22.0042C11.2461 10.8285 15.3783 6.61808 18 5.09982C19.4243 4.27808 21.0443 3.85547 22.7974 3.85547C27.54 3.85547 32.3139 6.88416 36 10.0381C37.1113 9.09112 38.3243 8.14416 39.6078 7.29895L39.8661 7.1346C42.7539 5.25634 45.9861 3.85547 49.1948 3.85547C50.9478 3.85547 52.56 4.27025 53.9843 5.09982C58.6643 7.77634 60.3391 14.2798 58.7035 23.1546C66.4357 25.9016 71.1 30.0494 71.8591 34.8703L71.9687 34.9798L72 36.3024C72 41.7181 67.2104 46.4137 58.7426 49.4189C58.8209 49.8181 58.8913 50.2094 58.9539 50.6085C60.7148 61.7998 56.5904 66.0024 53.9765 67.5129C52.5443 68.3581 50.893 68.7885 49.093 68.7885H49.1009Z" fill="white"/>
<path d="M35.9867 42.1414C39.2189 42.1414 41.8406 39.5197 41.8406 36.2797C41.8406 33.0397 39.2189 30.418 35.9867 30.418C32.7546 30.418 30.1328 33.0397 30.1328 36.2797C30.1328 39.5197 32.7546 42.1414 35.9867 42.1414Z" fill="#61DAFB"/>
<path d="M68.8406 36.2776C68.8406 31.6758 63.4406 27.6767 55.0433 25.2741C57.1563 16.7828 56.4128 10.0993 52.4137 7.81411C48.4146 5.49759 42.2711 8.21324 35.9867 14.2706C29.7024 8.18193 23.5589 5.49759 19.5598 7.81411C16.2493 9.7315 15.0206 14.5915 16.1319 21.5019C16.3354 22.7306 16.6172 23.9906 16.9302 25.3054C8.53281 27.708 3.13281 31.7072 3.13281 36.3089C3.13281 40.9106 8.53281 44.8863 16.9302 47.3124C16.6172 48.5958 16.3276 49.8872 16.1319 51.1158C15.0206 58.0341 16.2493 62.8941 19.5598 64.8037C20.5302 65.375 21.6415 65.6646 22.8702 65.6646C25.7815 65.6646 29.2954 64.0602 33.1302 60.9454C34.0693 60.1706 35.0476 59.2863 35.9867 58.3706C36.9259 59.2863 37.9041 60.1706 38.8433 60.9454C42.6702 64.0602 46.1841 65.6646 49.1033 65.6646C50.3319 65.6646 51.4433 65.375 52.4137 64.8037C55.7241 62.8863 56.9528 58.0263 55.8728 51.1158C55.6693 49.8872 55.3876 48.6272 55.0746 47.3124C63.472 44.9098 68.8719 40.9106 68.8719 36.3089L68.8406 36.2776ZM50.9893 10.2637C53.5641 11.7506 54.1354 17.1819 52.2728 24.5541C49.5885 23.928 46.6459 23.4663 43.5311 23.1845C41.7311 20.6411 39.845 18.3245 37.9902 16.2976C42.3337 12.095 46.3641 9.80976 49.1346 9.80976C49.8467 9.80976 50.4806 9.95063 51.0206 10.2637H50.9893ZM45.1589 41.568C44.1337 43.3132 43.0772 45.0272 41.9893 46.6237C40.0719 46.7645 38.0763 46.8506 36.018 46.8506C33.9598 46.8506 31.9641 46.7645 30.0467 46.6237C28.9589 45.0193 27.8789 43.3054 26.8772 41.568C25.8519 39.7993 24.9363 38.0541 24.0754 36.2776C24.9363 34.5089 25.8441 32.7637 26.8772 30.9872C27.9024 29.1872 28.9902 27.4967 30.0467 25.9315C31.9641 25.7906 33.9598 25.7045 36.018 25.7045C38.0763 25.7045 40.0719 25.7906 41.9893 25.9315C43.0772 27.5045 44.1337 29.1872 45.1589 30.9872C46.1606 32.7324 47.0998 34.5011 47.9606 36.2776C47.1311 38.0228 46.2154 39.768 45.1589 41.568ZM49.4476 39.6193C50.2459 41.5367 50.9346 43.3915 51.5059 45.2228C49.6746 45.6219 47.7024 45.9976 45.6206 46.248C46.3093 45.1915 46.9667 44.1037 47.6241 42.9924C48.2815 41.8811 48.8841 40.7306 49.4554 39.6193H49.4476ZM35.9867 54.1993C34.7032 52.7985 33.4119 51.2567 32.1598 49.5976C33.4198 49.6524 34.6719 49.6837 35.9867 49.6837C37.3015 49.6837 38.5615 49.6524 39.8137 49.5976C38.5537 51.2567 37.2702 52.7672 35.9867 54.1993ZM26.3606 46.2559C24.2789 45.9976 22.3067 45.6532 20.4754 45.2306C21.0467 43.3993 21.7354 41.5445 22.5337 39.6272C23.105 40.7385 23.7076 41.8889 24.365 43.0002C25.0224 44.1115 25.6798 45.1993 26.3685 46.2559H26.3606ZM22.5337 32.9045C21.7354 30.9872 21.0467 29.1324 20.4754 27.3011C22.3067 26.9019 24.2789 26.5263 26.3606 26.2758C25.6719 27.3324 25.0146 28.4202 24.3572 29.5315C23.6998 30.6428 23.0972 31.7619 22.5259 32.9045H22.5337ZM35.9867 18.3245C37.2467 19.6941 38.5302 21.2437 39.8137 22.9263C38.5537 22.8715 37.3015 22.8402 35.9867 22.8402C34.6719 22.8402 33.4119 22.8715 32.1598 22.9263C33.4432 21.2437 34.7032 19.6941 35.9867 18.3245ZM47.6163 29.5628C46.9589 28.4515 46.3015 27.3637 45.6128 26.3072C47.6946 26.5654 49.6667 26.9098 51.498 27.3324C50.958 29.1324 50.2693 30.9872 49.4398 32.9359C48.8685 31.8245 48.2424 30.6741 47.6085 29.5628H47.6163ZM18.9337 21.0402C18.0493 15.468 18.7928 11.5472 20.9919 10.295C21.5319 9.98193 22.1659 9.84106 22.878 9.84106C25.6485 9.84106 29.6789 12.1263 34.0224 16.3289C32.1363 18.3558 30.2815 20.6724 28.4815 23.2158C25.3667 23.5054 22.4241 23.9593 19.7398 24.5854C19.4267 23.388 19.1685 22.1828 18.9963 21.0715L18.9415 21.0402H18.9337ZM5.98933 36.2776C5.98933 33.3037 10.3876 30.1028 17.705 28.0211C18.5346 30.6819 19.6224 33.4524 20.9059 36.2776C19.6224 39.0793 18.5346 41.8498 17.705 44.5341C10.4189 42.4445 5.98933 39.275 5.98933 36.2776ZM31.3302 58.6602C26.9554 62.2054 23.1911 63.5202 20.9841 62.2602C18.785 61.0002 18.0415 57.0559 18.9259 51.515C19.098 50.3724 19.3798 49.1985 19.6693 48.0011C22.3537 48.6272 25.2963 49.0889 28.4111 49.3706C30.2111 51.8828 32.0659 54.2306 33.9519 56.2889C33.0676 57.1498 32.1833 57.9715 31.2989 58.6915L31.3302 58.6602ZM53.0476 51.515C53.9319 57.0872 53.1885 61.008 50.9893 62.2602C48.7902 63.5202 45.018 62.2054 40.6432 58.6602C39.7589 57.948 38.8746 57.1185 37.9824 56.2576C39.8998 54.1993 41.7546 51.8828 43.5233 49.3706C46.638 49.0811 49.5806 48.6272 52.265 48.0011C52.578 49.1985 52.8363 50.4037 53.0085 51.515H53.0398H53.0476ZM54.2763 44.5106C53.4467 41.8498 52.3589 39.0793 51.0754 36.2541C52.3902 33.3976 53.4467 30.6272 54.2763 27.9976C61.5937 30.0872 65.9919 33.2567 65.9919 36.2541C65.9919 39.2515 61.5937 42.4289 54.2763 44.5106Z" fill="#61DAFB"/>
</g>
<defs>
<clipPath id="clip0_57923_2774">
<rect width="72" height="72" fill="white"/>
</clipPath>
</defs>
</svg>
