<svg width="72" height="72" viewBox="0 0 72 72" fill="none" xmlns="http://www.w3.org/2000/svg">
<path d="M66.9448 41.1C66.8773 41.04 66.8098 40.98 66.7423 40.92C67.0273 39.165 67.1623 37.5675 67.1623 36.0225C67.1623 34.32 66.9823 32.6775 66.7423 31.1625C68.0923 30.2925 68.6023 29.01 68.7748 28.56L68.8573 28.3725C69.1723 27.6525 70.0573 25.65 69.2023 23.3775C68.9473 22.32 68.4448 21.57 68.1373 21.15C67.7923 20.3625 67.3873 19.71 67.0498 19.1625C66.8548 18.84 66.6673 18.54 66.5323 18.255C66.1873 17.565 65.8123 16.9425 65.4898 16.395C65.2198 15.9375 64.9573 15.5025 64.7923 15.18C63.8398 13.1925 62.3998 11.8275 60.4873 11.1C59.6623 10.7925 58.8223 10.635 58.0048 10.635C57.3523 10.635 56.7073 10.7325 56.0398 10.9425C55.8148 11.0175 55.5823 11.0925 55.3573 11.1675C52.8598 9.15 50.1373 7.56 47.2348 6.4125C47.1748 6.105 47.0998 5.7975 47.0173 5.4675C46.5148 3.5625 45.3973 2.055 43.8598 1.215C42.8548 0.6375 41.4823 0 39.6298 0C38.3473 0.015 37.0648 0.03 35.7748 0.03C34.4848 0.03 33.2098 0.0225 31.8598 0C30.7273 0 29.8723 0.2775 29.3473 0.4425L29.2498 0.4725C26.6548 1.3725 24.8848 3.4125 24.3973 6.105C24.3823 6.195 24.3673 6.285 24.3598 6.375C21.4423 7.5375 18.7123 9.1275 16.2073 11.1225C15.9748 11.04 15.7423 10.965 15.5098 10.8975C14.8798 10.71 14.2198 10.6125 13.5448 10.6125C11.2198 10.6125 8.96233 11.7825 7.61983 13.7325C7.31233 14.19 7.10233 14.61 6.94483 14.9175C6.89983 15.0075 6.86233 15.09 6.84733 15.12L6.80233 15.1875C6.32233 15.9 5.93233 16.605 5.58733 17.2275C5.41483 17.535 5.24983 17.835 5.06233 18.15C4.78483 18.6225 4.50733 19.1025 4.23733 19.5825C3.86983 20.2275 3.50233 20.88 3.11233 21.5025L3.06733 21.585C2.41483 22.6875 2.16733 23.8575 2.06233 24.6975C1.81483 26.94 2.74483 29.1825 4.61983 30.8475C4.69483 30.915 4.76983 30.9825 4.84483 31.05C4.58983 32.64 4.40233 34.245 4.40233 35.9325C4.40233 37.62 4.58233 39.2775 4.82233 40.7925C3.47233 41.6625 2.96233 42.945 2.78983 43.395L2.70733 43.5825C2.39233 44.3025 1.50733 46.305 2.36233 48.5775C2.61733 49.635 3.11983 50.385 3.42733 50.805C3.77233 51.5925 4.17733 52.245 4.50733 52.7925C4.70233 53.115 4.88983 53.415 5.02483 53.7C5.36983 54.39 5.74483 55.0125 6.06733 55.5675C6.33733 56.025 6.59983 56.46 6.76483 56.7825C7.71733 58.77 9.15733 60.1425 11.0698 60.8625C11.8948 61.17 12.7348 61.3275 13.5523 61.3275C14.2048 61.3275 14.8498 61.23 15.5173 61.02C15.7423 60.945 15.9748 60.87 16.1998 60.795C18.7123 62.835 21.4423 64.4325 24.3523 65.565C24.3973 65.7975 24.4423 66.03 24.4873 66.27C24.8773 68.25 26.0398 69.8925 27.6898 70.7925C28.6948 71.3625 30.0673 72 31.9123 72C33.1948 71.985 34.4773 71.97 35.7673 71.97C37.0573 71.97 38.3323 71.9775 39.6223 72H39.6898C40.8223 72 41.7223 71.715 42.1948 71.565C44.7298 70.755 46.5073 68.8275 47.0773 66.255C47.1223 66.0375 47.1673 65.82 47.2123 65.6025C50.1598 64.455 52.8673 62.8725 55.3948 60.825C55.5898 60.8925 55.7998 60.96 56.0098 61.02C56.4973 61.1625 57.2548 61.3575 58.1473 61.3575C59.1298 61.3575 60.0598 61.1325 60.9373 60.6825L60.9748 60.6675C62.5498 60.03 63.6448 59.0475 64.2448 57.735C64.8598 56.82 65.3548 55.905 65.7973 55.08C66.0448 54.63 66.2848 54.1725 66.5623 53.7075C66.7873 53.325 67.0123 52.935 67.2298 52.5525C67.6348 51.8475 68.0398 51.15 68.4598 50.46C69.0148 49.5675 69.3598 48.5325 69.5173 47.2575C69.7648 45.015 68.8348 42.7725 66.9598 41.1075L66.9448 41.1Z" fill="white"/>
<path d="M28.2657 62.1381C24.0882 60.9456 20.4132 58.7481 17.2032 55.6731C16.1982 56.0331 15.1707 56.3931 14.1282 56.7381C13.6407 56.8881 13.1607 56.8356 12.6507 56.6406C11.7582 56.3031 11.2107 55.6356 10.8207 54.8181C10.2807 53.7381 9.59072 52.7556 9.05072 51.6756C8.56322 50.6706 7.85822 49.8006 7.44572 48.7581C7.24322 48.2481 6.70322 47.9031 6.70322 47.2581C6.21572 46.4631 6.68822 45.7581 6.96572 45.0606C7.04072 44.8731 7.13072 44.6256 7.30322 44.5506C7.97822 44.2506 8.30822 43.5681 8.87072 43.1481C9.13322 42.9606 9.41072 42.7506 9.71072 42.5256C9.28322 40.3431 8.90822 38.1681 8.90822 35.9331C8.90822 33.6981 9.29822 31.5756 9.71072 29.4531C8.98322 28.7706 8.30822 28.1106 7.60322 27.4806C6.87572 26.8356 6.44822 26.0406 6.53822 25.2081C6.59072 24.7506 6.72572 24.2631 6.95072 23.8806C7.64072 22.7631 8.27822 21.5856 8.94572 20.4531C9.48572 19.5456 9.95072 18.5931 10.5507 17.7081C10.8657 17.2506 11.0532 16.7256 11.3682 16.2456C11.9832 15.3531 13.2132 14.9181 14.2257 15.2256C15.1182 15.4881 15.9582 15.8856 16.8732 16.0581C16.9632 16.0806 17.0382 16.2081 17.1357 16.3056C20.3607 13.2531 24.0357 11.0781 28.2582 9.80312C28.4232 9.29312 28.4607 8.73812 28.6707 8.21312C28.8207 7.81562 28.7832 7.32063 28.8582 6.88563C29.0607 5.74563 29.7507 5.08563 30.7407 4.74063C31.0932 4.62813 31.4532 4.51562 31.8807 4.51562C34.4907 4.55313 37.1007 4.55313 39.7182 4.51562C40.4607 4.51562 41.0982 4.81563 41.6982 5.16063C42.2382 5.44563 42.5382 6.05312 42.6882 6.62313C42.9507 7.66562 43.1007 8.73063 43.3032 9.82563C47.5032 11.0406 51.1782 13.2156 54.3882 16.2906C55.3932 15.9306 56.4207 15.5706 57.4632 15.2256C57.9507 15.0756 58.4307 15.1281 58.9407 15.3231C59.8332 15.6606 60.3807 16.3281 60.7707 17.1456C61.3107 18.2256 62.0007 19.2081 62.5407 20.2881C63.0282 21.2931 63.7332 22.1631 64.1457 23.2056C64.3482 23.7156 64.8882 24.0606 64.8882 24.7056C65.3757 25.5006 64.9032 26.2056 64.6257 26.9031C64.5507 27.0906 64.4607 27.3381 64.2882 27.4131C63.6132 27.7131 63.2832 28.3956 62.7207 28.8156C62.4582 29.0031 62.1807 29.2131 61.8807 29.4381C62.3082 31.6206 62.6832 33.7956 62.6832 36.0306C62.6832 38.2656 62.3457 40.3881 61.8807 42.5106C62.6082 43.1931 63.2832 43.8531 63.9882 44.4831C64.7157 45.1281 65.1432 45.9231 65.0532 46.7556C65.0007 47.2131 64.8882 47.7006 64.6407 48.0831C63.9657 49.1856 63.3357 50.3181 62.6832 51.4356C61.8657 52.8156 61.1907 54.3156 60.2382 55.6206C60.0732 56.3406 59.3982 56.4006 58.9107 56.6631C58.3857 56.9481 57.8682 56.8731 57.2907 56.7006C56.4357 56.4531 55.6107 56.0181 54.7182 55.9056C54.6282 55.8831 54.5532 55.7556 54.4557 55.6581C51.2307 58.7481 47.5707 60.9456 43.3032 62.1756C43.1007 63.1956 42.9132 64.2606 42.6882 65.3031C42.4632 66.3231 41.7957 66.9681 40.8432 67.2756C40.4907 67.3881 40.1157 67.5006 39.7032 67.5006C37.0932 67.4631 34.4832 67.4631 31.8657 67.5006C31.1232 67.5006 30.4857 67.2006 29.8857 66.8556C29.3457 66.5706 29.0307 65.9631 28.9182 65.3931C28.7157 64.2756 28.5057 63.2331 28.2807 62.1306L28.2657 62.1381ZM29.4807 45.4431C29.8557 45.2331 30.2832 45.1056 30.2982 44.6481C30.3357 43.9656 30.4257 43.2681 30.2832 42.6231C30.0207 41.5206 29.5557 40.4631 29.2782 39.3606C29.0907 38.6631 28.6782 37.9956 28.7007 37.2381C28.1007 35.7381 27.7332 34.1706 27.2232 32.6481C26.8107 31.3956 26.5107 30.1056 26.0682 28.8756C25.8282 28.1931 25.7682 27.4356 25.3257 26.8281C25.2882 26.7681 25.2732 26.7306 25.2732 26.7306C24.7707 26.3931 24.2457 26.5056 23.7957 26.5056C23.5332 26.7531 23.3082 26.9631 23.1057 27.1506C23.0907 27.7581 22.6557 28.2306 22.7307 28.8156C22.0782 30.2931 21.8007 31.8831 21.2532 33.4056C20.9757 34.1856 20.8032 34.9806 20.5782 35.7756C20.3757 36.5706 19.9257 37.2906 19.9257 38.1456C19.2132 39.7581 18.8607 41.4831 18.3432 43.1706C18.2157 43.5906 18.1407 43.9881 18.3957 44.3856C18.4707 44.4981 18.4332 44.6706 18.4332 44.6481C18.7332 44.9706 18.9582 45.1956 19.1457 45.4281H20.2632C20.5257 45.0906 20.7882 44.7681 21.0282 44.4456C20.9757 43.3656 21.1932 42.6456 21.6807 41.4906H27.1632C27.3132 42.0981 27.3882 42.6831 27.5907 43.2306C27.6807 43.4556 27.7782 43.6881 27.7407 43.9131C27.6882 44.6106 27.9057 45.1656 28.6932 45.4281C28.8807 45.4506 29.1582 45.4506 29.4732 45.4506L29.4807 45.4431ZM33.8457 45.4431C34.3482 45.4056 34.9257 45.5556 35.3382 45.1431C35.4882 44.9556 35.6157 44.7606 35.8032 44.4981V38.6256C37.1682 38.6256 38.5107 38.5656 39.8307 38.6481C40.6332 38.6856 41.2857 38.4381 41.9232 38.0406C42.2232 37.8531 42.4857 37.5681 42.7407 37.2981C43.4307 36.6156 43.7682 35.7831 43.7832 34.7931V30.1506C43.7832 29.9256 43.7307 29.6781 43.6707 29.4531C43.4682 28.6356 43.0332 28.0281 42.4557 27.5031C41.7807 26.8806 41.0007 26.4981 40.0707 26.4981H33.8007C33.5982 26.7231 33.3882 26.9556 33.1482 27.1806V44.7906C33.3882 45.0006 33.6132 45.2256 33.8382 45.4506L33.8457 45.4431ZM47.2782 45.4431H51.1557C51.3807 45.2181 51.6057 44.9856 51.8307 44.7831V43.6431C51.5532 43.1106 51.1182 42.7881 50.5632 42.7356V29.2806C50.9757 29.0706 51.3282 28.8831 51.7407 28.6581C51.7932 28.1631 51.8307 27.6531 51.8682 27.2931C51.5682 26.9556 51.3657 26.7081 51.1932 26.5131H47.3907C47.0757 26.7981 46.8507 27.0081 46.5732 27.2706C46.6257 27.7281 46.7007 28.2381 46.7607 28.6731C47.2107 28.8981 47.5632 29.0931 47.8782 29.2581V42.7506C47.6907 42.7881 47.4882 42.7506 47.4132 42.8481C47.1507 43.1106 46.7007 43.1856 46.6107 43.6281V44.7681C46.8357 44.9931 47.0607 45.2256 47.2857 45.4506L47.2782 45.4431Z" fill="#66C8FF"/>
<path d="M26.1775 38.5795C25.075 38.617 23.92 38.6395 22.765 38.677C22.7275 38.677 22.675 38.752 22.5625 38.8495C22.5775 37.672 23.2375 36.727 23.305 35.647C23.8675 34.702 23.92 33.5845 24.295 32.5195C24.4075 32.632 24.5725 32.7445 24.5725 32.842C24.5875 33.6595 25.06 34.357 25.21 35.137C25.3225 35.6695 25.6225 36.1795 25.6975 36.712C25.7725 37.3945 26.2225 37.9045 26.185 38.587L26.1775 38.5795Z" fill="#66C8FF"/>
<path d="M41.1903 34.9067C41.0628 35.1167 40.9503 35.3267 40.8003 35.5142C40.5378 35.8142 40.2003 35.9867 39.7728 35.9717C38.4678 35.9492 37.1628 35.9717 35.8203 35.9717V29.1467C37.1853 29.1467 38.5803 29.1242 39.9603 29.1467C40.6128 29.1692 41.1753 29.8517 41.1903 30.5717V34.9142V34.9067Z" fill="#66C8FF"/>
</svg>
