<svg width="72" height="72" viewBox="0 0 72 72" fill="none" xmlns="http://www.w3.org/2000/svg">
<path fill-rule="evenodd" clip-rule="evenodd" d="M60.5373 34.2128C59.1126 34.2128 57.6954 33.5378 56.8706 32.3378L51.3294 24.5452C50.3546 23.1952 50.2046 21.4027 50.9544 19.9027C51.2544 19.3026 51.6293 18.8526 52.1542 18.4776C50.9544 16.9776 49.1623 16.0776 47.1378 16.0776C45.1133 16.0776 41.8215 17.9526 40.9967 20.6452C40.6218 21.8452 39.8719 22.8202 38.8222 23.3452C38.1473 23.7202 37.4725 23.8702 36.7226 23.8702C35.9728 23.8702 35.8228 23.8702 35.373 23.6452C34.0982 23.2702 32.7485 22.9702 31.4063 22.8202C30.0566 22.6702 28.8569 21.9952 28.1146 20.9452C27.3723 19.8952 27.1398 18.4701 27.4397 17.2026C27.6647 16.2276 28.0396 15.3276 28.4145 14.4351C29.4643 12.0351 30.889 9.86757 32.756 7.99255C34.6306 6.11753 36.8726 4.62502 39.2721 3.65001C41.7465 2.60001 44.4384 2 47.2128 2C49.9872 2 52.6791 2.525 55.1535 3.57501C57.6279 4.62502 59.795 6.05003 61.6695 7.91755C63.5441 9.78507 65.0363 11.9601 66.011 14.3601C66.4609 15.3351 66.7609 16.3851 67.0608 17.4276C68.4105 17.6526 69.5353 18.5526 70.2026 19.7526C70.9524 21.2527 70.8775 23.0452 69.8277 24.3952L64.2864 32.1878C63.4616 33.3878 62.1119 34.0628 60.6198 34.0628L60.5448 34.2128H60.5373Z" fill="white"/>
<path fill-rule="evenodd" clip-rule="evenodd" d="M58.2843 69.7931C57.6095 69.7931 56.8597 69.6431 56.2598 69.2681C55.135 68.6681 54.3102 67.6181 53.9353 66.4256H39.0362C36.9367 66.4256 35.1446 65.0006 34.6947 62.9831C34.2448 60.9581 35.2195 58.8656 37.0941 57.9656C37.2441 57.9656 37.3191 57.8156 37.469 57.8156H37.619C39.3436 56.9905 40.8358 55.9405 42.2604 54.673C42.4104 54.523 42.6354 54.373 42.7853 54.148L43.3102 53.623C43.5352 53.398 43.7601 53.173 43.9101 52.948C44.7349 51.823 46.0846 51.223 47.4268 51.223H54.0178C54.3177 50.023 55.1425 48.973 56.3423 48.3805C57.0171 48.0805 57.692 47.8555 58.3668 47.8555C59.0417 47.8555 60.2414 48.1555 60.9912 48.6805L70.1242 55.198C71.3239 56.023 71.9987 57.373 71.9987 58.8656C71.9987 60.3581 71.3239 61.7081 70.1242 62.5331L60.9912 69.0506C60.2414 69.5756 59.2666 69.8756 58.3668 69.8756L58.2918 69.8006L58.2843 69.7931Z" fill="white"/>
<path fill-rule="evenodd" clip-rule="evenodd" d="M66.066 21.8503L60.5248 29.6428L54.9835 21.8503H58.0503C57.8254 16.0827 53.034 11.4402 47.1928 11.4402C41.3516 11.4402 38.0598 14.7327 36.7851 19.2328C35.2105 18.7078 33.4934 18.4078 31.8438 18.2578C32.0687 17.5077 32.2936 16.8327 32.5936 16.0827C33.4184 14.2077 34.5431 12.4902 36.0353 10.9902C37.46 9.56518 39.1771 8.36517 41.1267 7.62267C43.0762 6.79766 45.1682 6.34766 47.3428 6.34766C49.5173 6.34766 51.6093 6.79766 53.5589 7.62267C55.4334 8.44767 57.1505 9.57268 58.6502 10.9902C60.0749 12.4152 61.2746 14.1327 62.0919 16.0827C62.8418 17.8828 63.2917 19.8253 63.3666 21.8503H66.4335H66.0585H66.066Z" fill="#FF7F69"/>
<path fill-rule="evenodd" clip-rule="evenodd" d="M58.2797 65.294V61.9265H39.0391C39.189 61.9265 39.339 61.7765 39.414 61.7015C41.5135 60.7265 43.4556 59.3765 45.1052 57.809C45.3301 57.5839 45.5551 57.3589 45.78 57.2089C46.005 56.9839 46.2299 56.7589 46.4549 56.4589C46.7548 56.1589 46.9798 55.8589 47.2797 55.5589H58.2122V52.1914L67.3452 58.709L58.2122 65.2265L58.2872 65.3015L58.2797 65.294Z" fill="#7D65F5"/>
<path fill-rule="evenodd" clip-rule="evenodd" d="M4.5158 66.4915C2.04136 66.4915 0.0243163 64.4665 0.0243163 61.999V55.6314C0.0243163 53.1564 2.04886 51.1389 4.5158 51.1389H6.16543L0.84913 43.7213C-0.12565 42.3713 -0.275616 40.5788 0.474215 39.0788C1.14906 37.7288 2.49876 36.8288 3.99092 36.6788C4.29085 34.7288 4.89072 32.8612 5.64055 31.0612C6.99025 27.9187 8.85732 25.1437 11.1818 22.7512C13.5813 20.3511 16.3481 18.4836 19.4899 17.2086C22.7067 15.8586 26.0809 15.1836 29.5977 15.1836C33.1144 15.1836 30.8724 15.1836 31.6222 15.2586C33.7217 15.4086 35.7388 15.8586 37.6883 16.4586C38.5131 16.6836 39.113 16.9836 39.7879 17.2836C42.8547 18.5586 45.629 20.4261 48.021 22.8262C50.413 25.2262 52.2875 27.9937 53.5622 31.1362C54.9119 34.3538 55.5868 37.7288 55.5868 41.2463C55.5868 44.7638 54.9119 48.1389 53.5622 51.3564C52.4375 54.1239 50.7954 56.5989 48.7708 58.774C48.7708 58.774 48.021 59.599 47.946 59.599C47.796 59.749 47.2712 60.274 47.1962 60.349C45.2466 62.149 43.1546 63.5665 40.7551 64.6915C40.4552 64.8415 40.1553 64.9915 39.7804 65.1415H39.6304C37.4559 66.0415 35.1389 66.5665 32.6645 66.5665H4.5158V66.4915ZM30.8049 51.1389C36.2711 51.1389 40.8376 46.7214 40.9126 41.2538V41.1038C40.9126 34.8863 35.8962 29.8687 29.6801 29.8687C23.464 29.8687 20.9221 32.7862 19.1975 36.9113C20.1723 37.2863 21.0721 38.0363 21.522 39.0113C22.2718 40.5113 22.1968 42.3038 21.1471 43.6538L15.8308 51.0714H30.7299L30.8049 51.1464V51.1389Z" fill="white"/>
<path fill-rule="evenodd" clip-rule="evenodd" d="M51.1779 41.1014C51.1779 44.019 50.5781 46.794 49.4533 49.4865C48.4785 51.7365 47.1288 53.829 45.4867 55.629C45.2618 55.854 45.0368 56.0791 44.8119 56.3041L44.212 56.9041C42.6373 58.4041 40.7703 59.6041 38.8207 60.5716C38.5208 60.7216 38.2958 60.7966 37.9959 60.9466C36.3463 61.6216 34.6292 61.9966 32.8296 61.9966H4.52344V55.629H30.805C38.7457 55.629 45.2543 49.2615 45.4042 41.3264V41.1014C45.4042 32.4164 38.3633 25.3738 29.6803 25.3738C20.9972 25.3738 13.9563 32.4164 13.9563 41.1014H17.623L11.107 50.2365L4.59092 41.1014H8.2576C8.2576 38.1839 8.85746 35.4089 9.98221 32.7164C11.107 30.1663 12.6066 27.8488 14.6237 25.8988C16.5732 23.9488 18.8902 22.3813 21.4396 21.2563C24.064 20.1313 26.9059 19.5312 29.8227 19.5312C32.7396 19.5312 30.9475 19.5312 31.5473 19.5312C33.272 19.6813 34.9141 19.9813 36.4887 20.5063C37.0886 20.7313 37.6135 20.8813 38.2133 21.1813C40.7628 22.3063 43.0797 23.8063 45.0293 25.8238C46.9789 27.7738 48.546 30.0913 49.6708 32.6414C50.7955 35.2664 51.3954 38.1089 51.3954 41.0264L51.1704 41.1014H51.1779Z" fill="#F565CB"/>
</svg>
