<svg width="72" height="72" viewBox="0 0 72 72" fill="none" xmlns="http://www.w3.org/2000/svg">
<g clip-path="url(#clip0_88515_685)">
<g clip-path="url(#clip1_88515_685)">
<path d="M39.0376 72.3203C35.0176 72.3203 31.8176 69.1803 31.7576 65.1703L31.5276 49.8903H10.8476C6.96757 49.8903 3.51757 47.7203 1.83757 44.2303C0.14757 40.7403 0.60757 36.6903 3.00757 33.6503L27.2976 3.07031C28.6876 1.32031 30.7476 0.320312 32.9576 0.320312C36.9776 0.320312 40.1776 3.46031 40.2376 7.47031L40.3376 22.7503H61.1476C65.0176 22.7503 68.4776 24.9203 70.1576 28.4103C71.8476 31.9003 71.3876 35.9503 68.9876 38.9903L44.6976 69.5803C43.3076 71.3303 41.2476 72.3303 39.0376 72.3303V72.3203Z" fill="white"/>
<path d="M41.1753 66.77C39.5653 68.8 36.3053 67.69 36.2653 65.1L35.6953 27.25H61.1453C65.7553 27.25 68.3253 32.57 65.4553 36.18L41.1653 66.77H41.1753Z" fill="url(#paint0_linear_88515_685)"/>
<path d="M30.8154 5.8694C32.4254 3.8394 35.6854 4.9494 35.7254 7.5394L35.9754 45.3894H10.8454C6.23544 45.3894 3.66544 40.0694 6.53544 36.4594L30.8154 5.8694Z" fill="#3ECF8E"/>
</g>
</g>
<defs>
<linearGradient id="paint0_linear_88515_685" x1="33.6453" y1="40.52" x2="56.2653" y2="50" gradientUnits="userSpaceOnUse">
<stop stop-color="#249361"/>
<stop offset="1" stop-color="#3ECF8E"/>
</linearGradient>
<clipPath id="clip0_88515_685">
<rect width="72" height="72" fill="white"/>
</clipPath>
<clipPath id="clip1_88515_685">
<rect width="70.34" height="72" fill="white" transform="translate(0.828125 0.320312)"/>
</clipPath>
</defs>
</svg>
