<svg width="72" height="72" viewBox="0 0 72 72" fill="none" xmlns="http://www.w3.org/2000/svg">
<g clip-path="url(#clip0_2282_554)">
<path d="M61.35 0H10.65C4.76817 0 0 4.76817 0 10.65V61.35C0 67.2318 4.76817 72 10.65 72H61.35C67.2318 72 72 67.2318 72 61.35V10.65C72 4.76817 67.2318 0 61.35 0Z" fill="white"/>
<path d="M61.35 4.5H10.65C7.25345 4.5 4.5 7.25345 4.5 10.65V61.35C4.5 64.7466 7.25345 67.5 10.65 67.5H61.35C64.7466 67.5 67.5 64.7466 67.5 61.35V10.65C67.5 7.25345 64.7466 4.5 61.35 4.5Z" fill="#3178C6"/>
<path d="M61.35 4.5H10.65C7.25345 4.5 4.5 7.25345 4.5 10.65V61.35C4.5 64.7466 7.25345 67.5 10.65 67.5H61.35C64.7466 67.5 67.5 64.7466 67.5 61.35V10.65C67.5 7.25345 64.7466 4.5 61.35 4.5Z" fill="#3178C6"/>
<path fill-rule="evenodd" clip-rule="evenodd" d="M43.5172 54.5945V60.7445C44.4922 61.2695 45.6922 61.6445 47.0422 61.8695C48.3922 62.0945 49.8172 62.2445 51.3922 62.2445C52.9672 62.2445 54.2422 62.0945 55.5922 61.7945C56.9422 61.4945 58.0672 61.0445 59.1172 60.3695C60.0922 59.6945 60.9172 58.8695 61.5172 57.8195C62.1172 56.7695 62.4172 55.4945 62.4172 53.9195C62.4172 52.3445 62.2672 51.8195 61.8922 50.9945C61.5172 50.1695 61.0672 49.4195 60.4672 48.7445C59.8672 48.0695 59.1172 47.4695 58.2172 47.0195C57.3172 46.5695 56.3422 46.0445 55.2172 45.5195C54.3922 45.2195 53.7172 44.8445 53.0422 44.5445C52.3672 44.2445 51.8422 43.9445 51.3922 43.5695C50.9422 43.2695 50.5672 42.8945 50.3422 42.5195C50.1172 42.1445 49.9672 41.7695 49.9672 41.2445C49.9672 40.7195 50.0422 40.4195 50.2672 40.1195C50.4922 39.8195 50.7922 39.5195 51.1672 39.2195C51.5422 38.9945 52.0672 38.7695 52.6672 38.6195C53.2672 38.4695 53.8672 38.3945 54.6172 38.3945C55.3672 38.3945 55.6672 38.3945 56.2672 38.5445C56.8672 38.6195 57.3922 38.7695 57.9922 38.9195C58.5922 39.0695 59.1172 39.2945 59.6422 39.5195C60.1672 39.7445 60.6922 40.0445 61.1422 40.3445V34.5695C60.2422 34.1945 59.1922 33.9695 58.0672 33.7445C56.9422 33.5195 55.6672 33.5195 54.2422 33.5195C52.8172 33.5195 51.3922 33.6695 50.1172 33.9695C48.8422 34.2695 47.6422 34.7945 46.6672 35.4695C45.6922 36.1445 44.8672 36.9695 44.3422 38.0195C43.7422 39.0695 43.4422 40.2695 43.4422 41.6945C43.4422 43.1195 43.9672 45.0695 45.0172 46.4195C46.0672 47.6945 47.7172 48.8195 49.8172 49.7195C50.6422 50.0945 51.4672 50.3945 52.2172 50.7695C52.9672 51.1445 53.5672 51.4445 54.0922 51.8195C54.6172 52.1945 55.0672 52.5695 55.3672 53.0195C55.6672 53.4695 55.8172 53.9195 55.8172 54.4445C55.8172 54.9695 55.7422 55.1945 55.5172 55.5695C55.2922 55.9445 55.0672 56.1695 54.6172 56.4695C54.1672 56.7695 53.7172 56.9195 53.1172 57.0695C52.5172 57.2195 51.8422 57.2945 51.0922 57.2945C49.7422 57.2945 48.4672 57.0695 47.1172 56.6195C45.8422 56.1695 44.5672 55.4195 43.4422 54.5195L43.5172 54.5945ZM33.1672 39.4445H41.0422V34.4195H18.9922V39.4445H26.8672V61.9445H33.0922V39.4445H33.1672Z" fill="white"/>
</g>
<defs>
<clipPath id="clip0_2282_554">
<rect width="72" height="72" fill="white"/>
</clipPath>
</defs>
</svg>
