<svg width="16" height="16" viewBox="0 0 16 16" fill="none" xmlns="http://www.w3.org/2000/svg">
<path d="M0.888889 0H15.1111C15.6021 0 16 0.397973 16 0.888889V15.1111C16 15.602 15.6021 16 15.1111 16H0.888889C0.397964 16 0 15.602 0 15.1111V0.888889C0 0.397973 0.397964 0 0.888889 0ZM1.77778 1.77778V14.2222H14.2222V1.77778H1.77778ZM4 5.33333C3.26362 5.33333 2.66667 4.73638 2.66667 4C2.66667 3.26362 3.26362 2.66667 4 2.66667C4.73637 2.66667 5.33333 3.26362 5.33333 4C5.33333 4.73638 4.73637 5.33333 4 5.33333ZM3.11111 6.22222H4.88889V12.8889H3.11111V6.22222ZM8.00002 6.604C8.51948 6.10252 9.12491 5.77778 9.77779 5.77778C11.6187 5.77778 12.8889 7.27013 12.8889 9.11111V12.8889H11.1111V9.11111C11.1111 8.252 10.4147 7.55556 9.55557 7.55556C8.69646 7.55556 8.00002 8.252 8.00002 9.11111V12.8889H6.22224V6.22222H8.00002V6.604Z" fill="#F8F7E5"/>
</svg>
