<svg width="30" height="48" viewBox="0 0 30 48" fill="none" xmlns="http://www.w3.org/2000/svg">
<g clip-path="url(#clip0_88069_36)">
<g clip-path="url(#clip1_88069_36)">
<path d="M15.3536 31.6464C15.1583 31.4512 14.8417 31.4512 14.6464 31.6464L11.4645 34.8284C11.2692 35.0237 11.2692 35.3403 11.4645 35.5355C11.6597 35.7308 11.9763 35.7308 12.1716 35.5355L15 32.7071L17.8284 35.5355C18.0237 35.7308 18.3403 35.7308 18.5355 35.5355C18.7308 35.3403 18.7308 35.0237 18.5355 34.8284L15.3536 31.6464ZM14.5 48C14.5 48.2761 14.7239 48.5 15 48.5C15.2761 48.5 15.5 48.2761 15.5 48H14.5ZM14.5 32L14.5 48H15.5L15.5 32H14.5Z" fill="#F8F7E5"/>
</g>
</g>
<defs>
<clipPath id="clip0_88069_36">
<rect width="30" height="48" fill="white"/>
</clipPath>
<clipPath id="clip1_88069_36">
<rect width="30" height="48" fill="white"/>
</clipPath>
</defs>
</svg>
