<svg width="39" height="44" viewBox="0 0 39 44" fill="none" xmlns="http://www.w3.org/2000/svg">
<path d="M21.2891 2C21.2891 0.89543 20.3936 0 19.2891 0C18.1845 0 17.2891 0.89543 17.2891 2H21.2891ZM17.8748 43.4142C18.6559 44.1953 19.9222 44.1953 20.7033 43.4142L33.4312 30.6863C34.2122 29.9052 34.2122 28.6389 33.4312 27.8579C32.6501 27.0768 31.3838 27.0768 30.6028 27.8579L19.2891 39.1716L7.97535 27.8579C7.19431 27.0768 5.92798 27.0768 5.14693 27.8579C4.36588 28.6389 4.36588 29.9052 5.14693 30.6863L17.8748 43.4142ZM17.2891 2V42H21.2891V2H17.2891Z" fill="#F8F7E5"/>
</svg>
