<svg width="15" height="15" viewBox="0 0 15 15" fill="none" xmlns="http://www.w3.org/2000/svg">
<path d="M6.33333 8.66667L4.54167 6.875C4.38889 6.72222 4.19444 6.64583 3.95833 6.64583C3.72222 6.64583 3.52778 6.72222 3.375 6.875C3.22222 7.02778 3.14583 7.22222 3.14583 7.45833C3.14583 7.69444 3.22222 7.88889 3.375 8.04167L5.75 10.4167C5.91667 10.5833 6.11111 10.6667 6.33333 10.6667C6.55556 10.6667 6.75 10.5833 6.91667 10.4167L11.625 5.70833C11.7778 5.55556 11.8542 5.36111 11.8542 5.125C11.8542 4.88889 11.7778 4.69444 11.625 4.54167C11.4722 4.38889 11.2778 4.3125 11.0417 4.3125C10.8056 4.3125 10.6111 4.38889 10.4583 4.54167L6.33333 8.66667ZM1.66667 15C1.20833 15 0.815972 14.8368 0.489583 14.5104C0.163194 14.184 0 13.7917 0 13.3333V1.66667C0 1.20833 0.163194 0.815972 0.489583 0.489583C0.815972 0.163194 1.20833 0 1.66667 0H13.3333C13.7917 0 14.184 0.163194 14.5104 0.489583C14.8368 0.815972 15 1.20833 15 1.66667V13.3333C15 13.7917 14.8368 14.184 14.5104 14.5104C14.184 14.8368 13.7917 15 13.3333 15H1.66667ZM1.66667 13.3333H13.3333V1.66667H1.66667V13.3333Z" fill="#FF834F"/>
</svg>
