<svg width="18" height="18" viewBox="0 0 18 18" fill="none" xmlns="http://www.w3.org/2000/svg">
<path d="M8.76667 10.6333L2.23333 17.1667C1.98889 17.4111 1.67778 17.5333 1.3 17.5333C0.922222 17.5333 0.611111 17.4111 0.366667 17.1667C0.122222 16.9222 0 16.6111 0 16.2333C0 15.8556 0.122222 15.5444 0.366667 15.3L6.9 8.76667L0.366667 2.23333C0.122222 1.98889 0 1.67778 0 1.3C0 0.922222 0.122222 0.611111 0.366667 0.366667C0.611111 0.122222 0.922222 0 1.3 0C1.67778 0 1.98889 0.122222 2.23333 0.366667L8.76667 6.9L15.3 0.366667C15.5444 0.122222 15.8556 0 16.2333 0C16.6111 0 16.9222 0.122222 17.1667 0.366667C17.4111 0.611111 17.5333 0.922222 17.5333 1.3C17.5333 1.67778 17.4111 1.98889 17.1667 2.23333L10.6333 8.76667L17.1667 15.3C17.4111 15.5444 17.5333 15.8556 17.5333 16.2333C17.5333 16.6111 17.4111 16.9222 17.1667 17.1667C16.9222 17.4111 16.6111 17.5333 16.2333 17.5333C15.8556 17.5333 15.5444 17.4111 15.3 17.1667L8.76667 10.6333Z" fill="#F8F7E5"/>
</svg>
