<svg width="49" height="46" viewBox="0 0 49 46" fill="none" xmlns="http://www.w3.org/2000/svg">
<path d="M13.1929 30.9273C12.3878 33.3584 9.51306 34.7266 8.1428 35.2082C8.45818 36.2233 11.0437 38.2818 14.1324 38.3743C17.2212 38.4667 20.638 37.9173 22.5647 35.421C24.4913 32.9247 23.9853 30.8387 23.1176 29.0493C22.2499 27.2598 20.3697 26.658 18.72 26.6437C17.0703 26.6295 14.1323 28.0911 13.1929 30.9273Z" fill="#FF834F"/>
<path d="M34.09 8.46398L20.1036 24.8101C22.8287 24.9989 24.6235 27.5814 25.1803 28.8491L38.5755 11.776C39.0584 11.0901 39.6023 9.39317 37.9145 8.09288C36.2268 6.79259 34.6616 7.79849 34.09 8.46398Z" fill="#FF834F"/>
<path d="M29.2672 36.1005L29.2672 35.2779L29.2415 34.738C30.7325 34.8923 32.2663 34.9522 33.8429 34.918C35.4196 34.8837 36.962 34.918 38.4701 35.0208C38.5387 34.2667 38.5901 33.4613 38.6244 32.6044C38.6586 31.7475 38.6758 30.8906 38.6758 30.0337C38.7101 29.1768 38.7358 28.3628 38.7529 27.5916C38.77 26.8204 38.8129 26.1435 38.8814 25.5608C39.1385 25.6122 39.4298 25.6465 39.7555 25.6636C40.0982 25.6636 40.4324 25.655 40.758 25.6379C41.1008 25.6379 41.4264 25.6379 41.7349 25.6379C42.0776 25.6379 42.369 25.6722 42.6089 25.7407C42.6089 26.2206 42.6003 26.709 42.5832 27.206C42.5832 27.6859 42.5746 28.1914 42.5575 28.7227C42.5403 29.5282 42.5232 30.3679 42.5061 31.2419C42.5061 32.0988 42.4975 32.9643 42.4804 33.8383C42.4804 34.6952 42.4632 35.5349 42.4289 36.3575C42.4118 37.163 42.3604 37.9342 42.2747 38.6711C41.1265 38.8254 40.004 38.9025 38.9071 38.9025C37.8275 38.9196 36.7564 38.9111 35.6938 38.8768C34.6313 38.8425 33.5687 38.7911 32.5062 38.7225C31.4779 38.654 30.4411 38.6283 29.3957 38.6454L29.3443 38.6454C29.31 38.1656 29.2843 37.78 29.2672 37.4886C29.2672 37.1801 29.2586 36.9316 29.2415 36.7431C29.2415 36.5718 29.2415 36.4347 29.2415 36.3318C29.2586 36.2461 29.2672 36.169 29.2672 36.1005Z" fill="#FF834F"/>
<path d="M10.2091 15.065C10.176 16.642 10.2371 18.1762 10.3924 19.6676L9.85243 19.6415L9.02965 19.6409C8.96108 19.6409 8.87538 19.6408 8.77253 19.6407C8.66968 19.6406 8.53256 19.6405 8.36114 19.6404C8.18973 19.6403 7.94975 19.6401 7.64121 19.6399C7.3498 19.6226 6.96411 19.5966 6.48413 19.562L6.48409 19.5105C6.50049 18.4649 6.46546 17.4193 6.37901 16.3736C6.32685 15.328 6.28324 14.2738 6.2482 13.211C6.21316 12.1482 6.19525 11.0683 6.19447 9.97126C6.19369 8.87422 6.2786 7.76011 6.44921 6.62891C7.18622 6.54373 7.95754 6.49286 8.76316 6.47629C9.58591 6.44259 10.4258 6.42605 11.2829 6.42666C12.1571 6.41014 13.0227 6.40219 13.8797 6.4028C14.7539 6.38628 15.5938 6.36973 16.3995 6.35317C16.9308 6.3364 17.4365 6.32819 17.9164 6.32854C18.4135 6.31175 18.902 6.30353 19.382 6.30387C19.4507 6.54389 19.4766 6.82674 19.4597 7.15241C19.46 7.46095 19.4602 7.78663 19.4604 8.12946C19.4607 8.47228 19.4609 8.8151 19.4612 9.15793C19.4785 9.48362 19.513 9.77505 19.5646 10.0322C18.9819 10.1004 18.3048 10.1427 17.5335 10.1593C16.7622 10.1759 15.9394 10.1925 15.0652 10.209C14.2253 10.2255 13.3682 10.2421 12.4941 10.2586C11.637 10.2922 10.84 10.3517 10.103 10.4369C10.2069 11.9454 10.2423 13.4881 10.2091 15.065Z" fill="#FF834F"/>
</svg>
