<svg width="17" height="19" viewBox="0 0 17 19" fill="none" xmlns="http://www.w3.org/2000/svg">
<g clip-path="url(#clip0_2199_410)">
<path d="M4.93747 18.139H12.0075C11.7275 17.489 11.2675 16.699 11.1075 15.889C10.8975 14.829 10.9275 13.699 10.7975 12.619C10.6675 11.539 11.6875 11.629 12.4375 11.279C13.1275 10.959 13.6075 10.609 14.1175 10.019C14.6275 9.429 14.7575 8.589 14.9375 7.819C15.1475 6.899 15.2875 6.059 14.9975 5.139C14.7575 4.369 14.4175 3.699 14.2675 2.879C14.1575 2.249 14.2675 0.758998 13.2675 0.978998C12.5575 1.139 11.9275 1.619 11.1975 1.759C10.4075 1.909 9.57747 1.839 8.77747 1.879C7.85747 1.919 6.94747 1.969 6.02747 1.879C5.67747 1.849 5.40747 1.789 5.09747 1.629C4.91747 1.539 4.87747 1.479 4.66747 1.419C4.49747 1.369 4.32747 1.369 4.15747 1.319C3.43747 1.149 2.73747 1.089 2.46747 1.919C2.27747 2.509 2.33747 3.379 2.29747 3.999C2.18747 5.609 1.32747 7.429 2.07747 8.999C2.54747 9.989 3.47747 10.569 4.44747 10.999C4.79747 11.159 6.13747 11.509 6.20747 11.939C6.24747 12.159 5.85747 12.689 5.81747 12.949C5.70747 13.559 5.73747 14.189 5.65747 14.809C5.53747 15.659 5.27747 16.489 5.11747 17.309C5.05747 17.589 4.97747 17.859 4.93747 18.119C4.93747 18.169 4.93747 18.129 4.94747 18.119L4.93747 18.139Z" fill="#FF834F"/>
<path d="M2.8233 14.9609C2.5433 14.7709 2.3033 14.5409 2.0233 14.2009C1.9233 14.0809 1.5133 13.5709 1.5933 13.6609C1.1633 13.1309 0.893301 12.8809 0.613301 12.7809C0.133301 12.6109 -0.116699 12.0809 0.0533013 11.6009C0.223301 11.1209 0.753301 10.8709 1.2333 11.0409C1.9333 11.2909 2.4033 11.7209 3.0333 12.5109C2.9433 12.4009 3.3433 12.9109 3.4333 13.0109C3.6133 13.2209 3.7433 13.3509 3.8433 13.4209C4.0333 13.5509 4.3833 13.6009 4.9133 13.5509C4.9333 13.2009 5.0033 12.8509 5.1033 12.5409C2.3533 11.8709 0.803301 10.1009 0.803301 6.62088C0.803301 5.47088 1.1433 4.44088 1.7833 3.57088C1.5833 2.74088 1.6133 1.74088 2.0633 0.620878C2.1633 0.360878 2.3833 0.160878 2.6433 0.0808778C2.7233 0.0608778 2.7633 0.0508778 2.8333 0.0408778C3.5733 -0.0691222 4.6233 0.200878 5.9933 1.06088C6.7933 0.870878 7.6333 0.770878 8.4833 0.770878C9.3333 0.770878 10.1633 0.870878 10.9633 1.05088C12.3333 0.180878 13.3933 -0.0891222 14.1333 0.0308778C14.2133 0.0408778 14.2833 0.0608778 14.3333 0.0808778C14.5933 0.170878 14.8033 0.360878 14.9033 0.620878C15.3533 1.75088 15.3833 2.75088 15.1833 3.57088C15.8233 4.44088 16.1633 5.46088 16.1633 6.62088C16.1633 10.1009 14.6133 11.8609 11.8633 12.5409C11.9833 12.9209 12.0433 13.3509 12.0433 13.8209C12.0433 14.4309 12.0433 15.0209 12.0433 15.6809C12.0433 15.8609 12.0433 16.0409 12.0433 16.3309C12.3933 16.4109 12.6733 16.6809 12.7533 17.0509C12.8533 17.5509 12.5333 18.0409 12.0233 18.1409C10.9733 18.3509 10.1833 17.6509 10.1833 16.7309C10.1833 16.6509 10.1833 16.5309 10.1833 16.3209C10.1833 16.0309 10.1833 15.8409 10.1833 15.6709C10.1833 15.0209 10.1833 14.4309 10.1833 13.8209C10.1833 13.1709 10.0133 12.7509 9.7933 12.5609C9.1833 12.0309 9.4933 11.0309 10.2933 10.9409C13.0433 10.6309 14.3033 9.57088 14.3033 6.63088C14.3033 5.75088 14.0133 5.02088 13.4533 4.40088C13.2133 4.14088 13.1433 3.76088 13.2833 3.43088C13.4333 3.05088 13.5033 2.54088 13.3733 1.94088C12.9133 2.07088 12.3433 2.35088 11.6533 2.82088C11.4233 2.97088 11.1433 3.02088 10.8833 2.95088C10.1233 2.74088 9.3033 2.63088 8.4833 2.63088C7.6633 2.63088 6.8433 2.74088 6.0833 2.95088C5.8233 3.02088 5.5433 2.98088 5.3133 2.83088C4.6133 2.36088 4.0433 2.08088 3.5833 1.95088C3.4533 2.55088 3.5133 3.06088 3.6733 3.44088C3.8033 3.77088 3.7333 4.14088 3.4933 4.41088C2.9433 5.02088 2.6433 5.76088 2.6433 6.64088C2.6433 9.58088 3.9133 10.6509 6.6433 10.9509C7.4433 11.0409 7.7533 12.0409 7.1433 12.5709C6.9633 12.7309 6.7433 13.2509 6.7433 13.8309V16.7509C6.7433 17.6609 5.9733 18.3509 4.9333 18.1709C4.4333 18.0809 4.0933 17.6009 4.1833 17.1009C4.2533 16.7209 4.5433 16.4309 4.8933 16.3509V15.4309C4.0533 15.4909 3.3533 15.3509 2.8033 14.9809L2.8233 14.9609Z" fill="#F8F7E5"/>
</g>
<defs>
<clipPath id="clip0_2199_410">
<rect width="16.16" height="18.17" fill="white"/>
</clipPath>
</defs>
</svg>
