<svg width="17" height="19" viewBox="0 0 17 19" fill="none" xmlns="http://www.w3.org/2000/svg">
<path d="M2.81881 14.9552C2.54114 14.7694 2.30215 14.5333 2.02263 14.1995C1.92157 14.0787 1.51252 13.5658 1.59146 13.6639C1.16308 13.1316 0.892437 12.8851 0.613439 12.785C0.132218 12.6125 -0.117991 12.0824 0.0545913 11.6013C0.227174 11.12 0.757187 10.8698 1.23842 11.0424C1.93512 11.2923 2.40639 11.7225 3.04119 12.5123C2.95418 12.4041 3.35536 12.9073 3.44207 13.0109C3.61843 13.2215 3.74755 13.349 3.84842 13.4165C4.03808 13.5435 4.39292 13.5982 4.91368 13.5461C4.93549 13.1923 5.00095 12.8493 5.10076 12.5322C2.35316 11.8607 0.798203 10.0879 0.798203 6.61153C0.798203 5.46475 1.14 4.43085 1.77758 3.5643C1.57608 2.73685 1.60647 1.73613 2.0569 0.610064C2.16018 0.351829 2.37412 0.153725 2.63951 0.0705442C2.71551 0.0485224 2.75762 0.0387289 2.83248 0.027232C3.5757 -0.0869036 4.62547 0.184893 5.99432 1.04235C6.79642 0.852988 7.63647 0.756913 8.48133 0.756913C9.32527 0.756913 10.1646 0.852813 10.966 1.04181C12.3328 0.178367 13.385 -0.0933278 14.1335 0.0270283C14.2119 0.039636 14.2791 0.0560205 14.335 0.0743766C14.5951 0.15977 14.8041 0.355902 14.9057 0.610064C15.356 1.73587 15.3865 2.73641 15.1852 3.56374C15.8247 4.43033 16.1644 5.45663 16.1644 6.61153C16.1644 10.0894 14.6147 11.8556 11.8671 12.5287C11.9827 12.9129 12.0437 13.3419 12.0437 13.8062C12.0437 14.4212 12.0414 15.0086 12.037 15.6672C12.0359 15.8433 12.0345 16.0314 12.0325 16.3204C12.38 16.397 12.6669 16.6717 12.7412 17.0431C12.8414 17.5444 12.5163 18.0321 12.015 18.1324C10.9605 18.3432 10.1791 17.6401 10.1791 16.7212C10.1791 16.6376 10.1798 16.5181 10.1811 16.3078C10.1833 16.018 10.1846 15.8306 10.1858 15.6551C10.19 15.0002 10.1923 14.4167 10.1923 13.8062C10.1923 13.1608 10.0228 12.7399 9.7981 12.5463C9.18623 12.0188 9.49633 11.0155 10.2992 10.9253C13.0451 10.6168 14.3131 9.55331 14.3131 6.61153C14.3131 5.72786 14.0244 4.99716 13.4678 4.3861C13.229 4.12389 13.1611 3.74831 13.2928 3.41903C13.4462 3.03558 13.5116 2.53313 13.3808 1.92513L13.3721 1.92759C12.9168 2.05643 12.3444 2.335 11.6517 2.80589C11.4257 2.95944 11.1436 3.00538 10.8807 2.93144C10.1213 2.71789 9.30527 2.60826 8.48133 2.60826C7.6573 2.60826 6.84122 2.71789 6.08195 2.93144C5.82041 3.00499 5.53976 2.95994 5.31439 2.80822C4.61776 2.33925 4.04217 2.06099 3.58414 1.93137C3.45136 2.53602 3.51689 3.03668 3.66983 3.41903C3.80154 3.74831 3.73354 4.12389 3.49476 4.3861C2.94205 4.99298 2.64955 5.73589 2.64955 6.61153C2.64955 9.54767 3.91873 10.6184 6.65016 10.9253C7.45115 11.0153 7.76245 12.0149 7.15419 12.5437C6.97609 12.6987 6.75699 13.2213 6.75699 13.8062V16.7212C6.75699 17.6342 5.9842 18.3187 4.94302 18.1364C4.43943 18.0483 4.10265 17.5686 4.19077 17.0651C4.25755 16.6835 4.54917 16.3977 4.90565 16.3199V15.4039C4.06317 15.4607 3.36732 15.3222 2.81881 14.9552Z" fill="#F8F7E5"/>
</svg>
