<svg width="32" height="32" viewBox="0 0 32 32" fill="none" xmlns="http://www.w3.org/2000/svg">
<g clip-path="url(#clip0_73553_2050)">
<path d="M32 26V6C32 2.68629 29.3137 0 26 0L6 0C2.68629 0 0 2.68629 0 6V26C0 29.3137 2.68629 32 6 32H26C29.3137 32 32 29.3137 32 26Z" fill="white"/>
<path d="M26 1H6C3.23858 1 1 3.23858 1 6V26C1 28.7614 3.23858 31 6 31H26C28.7614 31 31 28.7614 31 26V6C31 3.23858 28.7614 1 26 1Z" fill="#3BD242"/>
<path d="M13.2428 23.0014C12.8628 23.0014 12.4728 22.8614 12.1828 22.5714L6.44281 16.9314C5.86281 16.3614 5.86281 15.4214 6.44281 14.8514C7.02281 14.2814 7.97281 14.2814 8.56281 14.8514L13.2528 19.4514L23.4528 9.43141C24.0328 8.86141 24.9828 8.86141 25.5728 9.43141C26.1528 10.0014 26.1528 10.9414 25.5728 11.5114L14.3128 22.5714C14.0228 22.8614 13.6328 23.0014 13.2528 23.0014H13.2428Z" fill="#F4F4F4"/>
</g>
<defs>
<clipPath id="clip0_73553_2050">
<rect width="32" height="32" fill="white"/>
</clipPath>
</defs>
</svg>
