<svg width="32" height="29" viewBox="0 0 32 29" fill="none" xmlns="http://www.w3.org/2000/svg">
<g clip-path="url(#clip0_73553_1415)">
<path d="M30.84 7.15L17.68 0.41C17.16 0.14 16.58 0 16 0C15.42 0 14.83 0.14 14.33 0.41L1.16 7.15C0.45 7.52 0 8.24 0 9.04C0 9.84 0.44 10.57 1.16 10.93L3.98 12.38V12.99C3.98 17.65 7.77 21.44 12.43 21.44H19.55C19.75 21.44 19.94 21.42 20.13 21.41C20.17 21.8 20.27 22.18 20.45 22.52L20.03 24.47C19.83 25.39 20.06 26.33 20.65 27.05C21.24 27.78 22.11 28.19 23.05 28.19C23.99 28.19 24.86 27.77 25.45 27.04C26.04 26.31 26.26 25.37 26.06 24.46L25.65 22.52C25.65 22.52 25.92 21.86 25.94 21.79C26.11 20.85 25.93 19.9 25.29 19.17C25.37 19.1 25.45 19.03 25.53 18.95C27.12 17.35 28 15.23 27.99 12.98V12.38L30.85 10.92C31.56 10.55 32 9.83 32 9.03C32 8.23 31.56 7.5 30.84 7.14V7.15Z" fill="white"/>
<path d="M19.5466 20.4481H12.4266C8.30656 20.4481 4.97656 17.1181 4.97656 12.9981V8.32812H26.9866V12.9981C26.9966 17.1181 23.6666 20.4481 19.5466 20.4481Z" fill="#533566"/>
<path d="M17.2175 1.3L30.3875 8.04C31.1975 8.46 31.1975 9.63 30.3875 10.05L17.2175 16.79C16.4475 17.19 15.5475 17.19 14.7775 16.79L1.6075 10.05C0.7975 9.63 0.7975 8.46 1.6075 8.04L14.7775 1.3C15.5375 0.9 16.4475 0.9 17.2175 1.3Z" fill="#321B41"/>
<path d="M15.0977 8.55982C15.2977 8.11982 15.8277 7.94982 16.2577 8.15982L23.4477 11.8498C23.7377 11.9998 23.9077 12.2898 23.9077 12.6098V19.3398C24.5577 19.6598 25.0077 20.3298 25.0077 21.0998C25.0077 21.2698 24.9877 21.4298 24.9477 21.5898V21.6098C24.9477 21.6098 24.9277 21.7098 24.9077 21.7498C24.9077 21.7598 24.8977 21.7698 24.8977 21.7798C24.8877 21.8198 24.8677 21.8698 24.8477 21.9098C24.8477 21.9198 24.8377 21.9298 24.8377 21.9298C24.7877 22.0498 24.7077 22.1698 24.6377 22.2598C24.6277 22.2798 24.6177 22.2898 24.5977 22.3098L25.0977 24.6698C25.3777 25.9698 24.3877 27.1898 23.0577 27.1898C21.7277 27.1898 20.7377 25.9698 21.0177 24.6698L21.5177 22.3098C21.2477 21.9798 21.0877 21.5598 21.0877 21.0998C21.0877 20.8298 21.1377 20.5698 21.2377 20.3498C21.2377 20.3398 21.2477 20.3298 21.2577 20.3198C21.2677 20.2898 21.2877 20.2498 21.3077 20.2098C21.3277 20.1698 21.3477 20.1198 21.3877 20.0798C21.3977 20.0698 21.3977 20.0598 21.4077 20.0498C21.5977 19.7498 21.8777 19.4998 22.1977 19.3398V13.1198L15.4977 9.68982C15.0777 9.47982 14.8877 8.95982 15.0877 8.53982L15.0977 8.55982Z" fill="#FFB02E"/>
</g>
<defs>
<clipPath id="clip0_73553_1415">
<rect width="32" height="28.2" fill="white"/>
</clipPath>
</defs>
</svg>
