<svg width="14" height="14" viewBox="0 0 14 14" fill="none" xmlns="http://www.w3.org/2000/svg">
<path d="M5.73333 7.86667L4.3 6.43333C4.17778 6.31111 4.02222 6.25 3.83333 6.25C3.64444 6.25 3.48889 6.31111 3.36667 6.43333C3.24444 6.55556 3.18333 6.71111 3.18333 6.9C3.18333 7.08889 3.24444 7.24444 3.36667 7.36667L5.26667 9.26667C5.4 9.4 5.55556 9.46667 5.73333 9.46667C5.91111 9.46667 6.06667 9.4 6.2 9.26667L9.96667 5.5C10.0889 5.37778 10.15 5.22222 10.15 5.03333C10.15 4.84444 10.0889 4.68889 9.96667 4.56667C9.84444 4.44444 9.68889 4.38333 9.5 4.38333C9.31111 4.38333 9.15555 4.44444 9.03333 4.56667L5.73333 7.86667ZM6.66667 13.3333C5.74444 13.3333 4.87778 13.1583 4.06667 12.8083C3.25556 12.4583 2.55 11.9833 1.95 11.3833C1.35 10.7833 0.875 10.0778 0.525 9.26667C0.175 8.45555 0 7.58889 0 6.66667C0 5.74444 0.175 4.87778 0.525 4.06667C0.875 3.25556 1.35 2.55 1.95 1.95C2.55 1.35 3.25556 0.875 4.06667 0.525C4.87778 0.175 5.74444 0 6.66667 0C7.58889 0 8.45555 0.175 9.26667 0.525C10.0778 0.875 10.7833 1.35 11.3833 1.95C11.9833 2.55 12.4583 3.25556 12.8083 4.06667C13.1583 4.87778 13.3333 5.74444 13.3333 6.66667C13.3333 7.58889 13.1583 8.45555 12.8083 9.26667C12.4583 10.0778 11.9833 10.7833 11.3833 11.3833C10.7833 11.9833 10.0778 12.4583 9.26667 12.8083C8.45555 13.1583 7.58889 13.3333 6.66667 13.3333Z" fill="#F8F7E5"/>
</svg>
