<svg width="29" height="30" viewBox="0 0 29 30" fill="none" xmlns="http://www.w3.org/2000/svg">
<g clip-path="url(#clip0_2249_329)">
<path d="M28.4 14.2C28.4 5.57 22.82 0 14.2 0C5.58 0 0 5.57 0 14.2C0 22.21 4.81 27.58 12.41 28.31C13.32 29.48 14.73 30.24 16.32 30.24H16.82C19.06 30.24 20.95 28.74 21.57 26.7C25.86 24.43 28.4 20.01 28.4 14.2Z" fill="white"/>
<path d="M14.2 27.4C23 27.4 27.4 21.49 27.4 14.2C27.4 6.91 23 1 14.2 1C5.4 1 1 6.91 1 14.2C1 21.49 5.4 27.4 14.2 27.4Z" fill="#F9AF42"/>
<path d="M8.93875 14.4088C11.1287 14.4088 12.9088 12.6287 12.9088 10.4387C12.9088 8.24875 11.1287 6.46875 8.93875 6.46875C6.74875 6.46875 4.96875 8.24875 4.96875 10.4387C4.96875 12.6287 6.74875 14.4088 8.93875 14.4088Z" fill="white"/>
<path d="M19.4531 14.4805C21.6631 14.4805 23.4531 12.6905 23.4531 10.4805C23.4531 8.27047 21.6631 6.48047 19.4531 6.48047C17.2431 6.48047 15.4531 8.27047 15.4531 10.4805C15.4531 12.6905 17.2431 14.4805 19.4531 14.4805Z" fill="white"/>
<path d="M12.3084 10.4316C12.3084 11.9916 11.0384 13.2616 9.47844 13.2616C7.91844 13.2616 6.64844 11.9916 6.64844 10.4316C6.64844 8.87156 7.91844 7.60156 9.47844 7.60156C11.0384 7.60156 12.3084 8.87156 12.3084 10.4316Z" fill="#402A32"/>
<path d="M21.7381 10.4316C21.7381 11.9916 20.4681 13.2616 18.9081 13.2616C17.3481 13.2616 16.0781 11.9916 16.0781 10.4316C16.0781 8.87156 17.3481 7.60156 18.9081 7.60156C20.4681 7.60156 21.7381 8.87156 21.7381 10.4316Z" fill="#402A32"/>
<path d="M11.3697 17.9688C10.8497 17.9688 10.4297 18.3888 10.4297 18.9088C10.4297 19.4288 10.8497 19.8488 11.3697 19.8488H17.0297C17.5497 19.8488 17.9697 19.4288 17.9697 18.9088C17.9697 18.3888 17.5497 17.9688 17.0297 17.9688H11.3697Z" fill="#402A32"/>
<path d="M16.8303 19.8692C16.1003 19.8692 16.1003 19.1392 16.1003 19.1392V16.0892C16.1003 15.0492 15.2503 14.1992 14.2103 14.1992C13.1703 14.1992 12.3203 15.0492 12.3203 16.0892V25.2292C12.3203 27.4392 14.1103 29.2192 16.3103 29.2192H16.8103C19.0203 29.2192 20.8003 27.4292 20.8003 25.2292V23.8392C20.8003 21.6392 19.1903 19.8492 16.8203 19.8492L16.8303 19.8692Z" fill="#FF822D"/>
</g>
<defs>
<clipPath id="clip0_2249_329">
<rect width="28.4" height="30.24" fill="white"/>
</clipPath>
</defs>
</svg>
