<svg width="144" height="144" viewBox="0 0 144 144" fill="none" xmlns="http://www.w3.org/2000/svg">
<g clip-path="url(#clip0_1926_1156)">
<path d="M28 77.942L29.6781 85.1116L54.4543 80.1027L34.9591 96.3571L39.5491 102.103L59.7353 86.8795L49.2227 109.911L55.8856 113.103L67.4347 90.7098L68.0269 116H75.4302L76.0224 90.808L87.6209 113.348L94.2838 110.156L83.8205 87.2232L104.105 102.545L108.695 96.75L89.2989 80.5938L114.223 85.6518L115.901 78.4821L91.3225 72.2946L116 66.058L114.371 58.8884L89.5457 63.8973L109.041 47.6429L104.451 41.8973L84.2647 57.1205L94.7773 34.0893L88.1144 30.8973L76.5653 53.3393L75.9731 28H68.5698L67.9776 53.192L56.4285 30.6518L49.7162 33.8438L60.1795 56.7768L39.8946 41.4554L35.3045 47.25L54.7011 63.4062L29.7768 58.3482L28.1481 65.5179L52.6775 71.7054L28 77.942Z" fill="#F9AF42"/>
</g>
<g clip-path="url(#clip1_1926_1156)">
<path d="M64.0516 143.793C64.4306 143.884 64.7964 143.936 65.1623 143.975C65.9071 144.041 66.5997 143.975 67.24 143.779C67.8672 143.583 68.3899 143.27 68.7819 142.839C69.1739 142.407 69.3961 141.885 69.4614 141.258C69.5137 140.67 69.4091 140.16 69.1478 139.729C68.8865 139.311 68.5467 138.945 68.1286 138.631C67.7104 138.317 67.2792 138.03 66.848 137.782C66.4168 137.533 66.0378 137.298 65.7111 137.089C65.3845 136.88 65.1231 136.645 64.9402 136.397C64.7572 136.148 64.6788 135.861 64.705 135.547C64.7311 135.312 64.8095 135.09 64.9663 134.855C65.1231 134.619 65.3583 134.436 65.6719 134.306C66.0901 134.345 66.5213 134.423 66.9656 134.567C67.2792 134.659 67.5797 134.802 67.8672 134.972L68.4291 137.22L69.5529 137.324C69.6444 137.037 69.7228 136.71 69.8012 136.344C69.8796 135.978 69.9449 135.613 69.9841 135.273C70.0233 134.933 70.0494 134.659 70.0625 134.45C69.762 134.201 69.3961 133.992 68.9779 133.796C68.5598 133.613 68.1286 133.47 67.6712 133.352C67.2139 133.234 66.8088 133.169 66.4298 133.13C65.7373 133.064 65.0839 133.13 64.4828 133.313C63.8817 133.496 63.3721 133.809 62.9801 134.254C62.575 134.685 62.3529 135.247 62.2876 135.913C62.2353 136.54 62.3268 137.063 62.575 137.494C62.8233 137.925 63.163 138.304 63.5812 138.618C63.9993 138.932 64.4306 139.219 64.901 139.48C65.3191 139.729 65.7111 139.964 66.0509 140.173C66.4037 140.382 66.6781 140.617 66.8741 140.839C67.0832 141.075 67.1616 141.336 67.1485 141.636C67.1224 141.859 67.044 142.094 66.9003 142.316C66.7565 142.538 66.5605 142.708 66.3122 142.826C65.7111 142.799 65.1231 142.656 64.5743 142.421C64.4306 142.368 64.313 142.264 64.1823 142.185L63.8817 140.395L62.6273 140.277C62.5228 140.591 62.4444 140.918 62.379 141.258C62.3137 141.597 62.2614 141.937 62.2091 142.264C62.1699 142.59 62.1307 142.878 62.1046 143.126C62.3529 143.257 62.6404 143.374 62.9801 143.492C63.3199 143.61 63.6596 143.701 64.0386 143.793H64.0516Z" fill="#F8F7E5"/>
<path d="M59.1582 132.252C58.6747 131.978 58.139 131.808 57.5248 131.756L55.0943 132.409L55.2512 133.245C55.5778 133.18 55.8914 133.141 56.1789 133.128C56.4664 133.128 56.7408 133.141 57.0021 133.193C57.4856 133.298 57.8646 133.507 58.1521 133.82C58.4395 134.134 58.6225 134.513 58.7009 134.957C58.7793 135.414 58.7662 135.898 58.6486 136.421C58.5571 136.813 58.4134 137.192 58.1913 137.584C57.9822 137.976 57.6816 138.302 57.3158 138.564C56.9891 138.368 56.6885 138.093 56.4403 137.753C56.1789 137.414 55.9568 137.022 55.7738 136.577L53.853 137.348C53.9314 137.766 54.0882 138.119 54.3234 138.433C54.5586 138.747 54.833 138.995 55.1727 139.204C55.5125 139.413 55.8784 139.557 56.2835 139.648C56.9891 139.805 57.6555 139.779 58.3089 139.583C58.9491 139.374 59.511 139.021 59.9684 138.498C60.4257 137.976 60.7393 137.322 60.9223 136.525C61.053 135.911 61.0791 135.336 60.9746 134.787C60.87 134.238 60.674 133.755 60.3604 133.324C60.0468 132.892 59.6678 132.54 59.1844 132.265L59.1582 132.252Z" fill="#F8F7E5"/>
<path d="M48.3864 133.521L47.1973 133.103C47.0536 133.285 46.9099 133.495 46.7531 133.73C46.5962 133.965 46.4525 134.213 46.3218 134.475C46.1912 134.736 46.0736 134.984 45.969 135.232C45.8645 135.481 45.773 135.69 45.7207 135.886C45.8906 136.16 46.1389 136.369 46.4525 136.539C46.7792 136.696 47.132 136.774 47.524 136.761L49.5755 135.69L49.1835 136.801L49.6801 137.767C50.1374 137.898 50.6079 138.003 51.0913 138.081C51.5879 138.16 52.0452 138.186 52.4895 138.173L52.6333 137.428L51.5748 136.905L53.3258 131.926C53.4173 131.926 53.4957 131.926 53.5872 131.926C53.953 131.926 54.2797 131.9 54.5803 131.835L54.7109 131.312L53.1952 130.777L51.4964 130.175L49.9676 129.64L49.654 130.345C49.7846 130.489 49.9414 130.633 50.1374 130.79C50.3334 130.946 50.5295 131.09 50.7385 131.221C50.8561 131.286 50.9476 131.352 51.0521 131.404L49.9806 134.462C49.9806 134.462 49.9545 134.475 49.9414 134.488C49.5886 134.71 49.2619 134.88 48.9483 135.01C48.6347 135.141 48.3211 135.232 48.0206 135.298L48.3472 133.521H48.3864Z" fill="#F8F7E5"/>
<path d="M46.7954 130.11C46.7432 129.391 46.5341 128.764 46.1552 128.215C45.7762 127.666 45.2796 127.235 44.6786 126.935C44.0775 126.634 43.4633 126.503 42.823 126.53C42.1827 126.556 41.5816 126.765 41.0067 127.144C40.4317 127.523 39.9613 128.111 39.5693 128.882C39.1773 129.666 39.0074 130.41 39.0466 131.103C39.0858 131.796 39.2949 132.41 39.6608 132.945C40.0267 133.481 40.5101 133.899 41.1112 134.2C41.7123 134.5 42.3395 134.644 42.9929 134.618C43.6463 134.605 44.2735 134.409 44.8484 134.03C45.4365 133.651 45.9199 133.089 46.2989 132.318C46.6778 131.56 46.8477 130.829 46.7954 130.11ZM44.6786 129.966C44.5871 130.397 44.4303 130.842 44.1951 131.299C43.9729 131.743 43.7377 132.135 43.4633 132.475C43.1889 132.815 42.9145 133.063 42.6401 133.207C42.5225 133.233 42.3918 133.233 42.235 133.207C42.0913 133.181 41.9345 133.128 41.8038 133.063C41.4771 132.906 41.268 132.645 41.1896 132.305C41.1112 131.965 41.1243 131.573 41.2288 131.129C41.3334 130.685 41.5032 130.228 41.7385 129.757C41.8822 129.483 42.039 129.195 42.2219 128.921C42.4049 128.646 42.6009 128.411 42.81 128.228C43.019 128.045 43.2412 127.928 43.4895 127.888C43.6724 127.915 43.8423 127.98 43.9991 128.058C44.3519 128.228 44.574 128.49 44.6655 128.829C44.77 129.169 44.77 129.561 44.6655 129.992L44.6786 129.966Z" fill="#F8F7E5"/>
<path d="M39.3852 125.575C39.4767 125.601 39.5682 125.627 39.6727 125.653C40.0255 125.731 40.3522 125.784 40.6658 125.797L40.9141 125.326L39.5681 124.464L38.9148 124.046L37.1115 122.896L36.6411 123.51C36.7718 123.771 36.9547 124.059 37.203 124.333C37.2553 124.399 37.3075 124.438 37.3467 124.49L32.1852 132.605L32.4727 133.624C32.8778 133.859 33.309 134.068 33.7794 134.251C34.2498 134.434 34.6941 134.565 35.1253 134.656L35.452 133.951L34.5242 133.206L39.3852 125.562V125.575Z" fill="#F8F7E5"/>
<path d="M34.9425 122.595C35.0339 122.635 35.1254 122.661 35.2169 122.7C35.5697 122.818 35.8833 122.883 36.1969 122.922L36.4844 122.465L35.5697 121.772L35.3867 121.629L35.2169 121.498L34.6027 121.027L32.904 119.734L32.3813 120.309C32.4858 120.583 32.6426 120.871 32.8648 121.184C32.917 121.25 32.9562 121.289 32.9954 121.354L27.1675 128.998L27.3635 130.031C27.7555 130.305 28.1606 130.54 28.6049 130.762C29.0492 130.985 29.4804 131.154 29.9116 131.285L30.2905 130.606L29.4281 129.795L34.9163 122.595H34.9425Z" fill="#F8F7E5"/>
<path d="M27.8846 115.54C27.7931 114.913 27.5057 114.325 27.0091 113.802L24.8661 113.345C24.9706 113.123 25.049 112.901 25.0752 112.665C25.1013 112.404 25.1013 112.156 25.049 111.934C25.0098 111.711 24.9184 111.528 24.8008 111.398L22.7753 110.653L22.3441 111.228C22.4617 111.319 22.5663 111.411 22.6708 111.489C22.7753 111.568 22.8537 111.646 22.9321 111.738C23.0106 111.816 23.0498 111.92 23.0498 112.012C23.0498 112.116 23.0106 112.195 22.9321 112.26L16.1764 118.376V119.434C16.5162 119.774 16.8821 120.087 17.2741 120.388C17.6661 120.689 18.0712 120.937 18.4632 121.133L18.9597 120.532L18.2672 119.578L20.0966 117.918C20.2534 118.206 20.4233 118.493 20.6715 118.755C21.0897 119.225 21.547 119.565 22.0436 119.787C22.5401 120.009 23.0497 120.14 23.5724 120.153C24.0951 120.166 24.6047 120.074 25.1013 119.891C25.5979 119.708 26.0552 119.421 26.4603 119.042C26.983 118.572 27.3619 118.023 27.6233 117.409C27.8715 116.795 27.963 116.167 27.8715 115.527L27.8846 115.54ZM25.4541 116.481C25.2712 116.834 25.0229 117.147 24.6962 117.448C24.3303 117.775 23.9252 118.036 23.481 118.219C23.0367 118.402 22.6055 118.48 22.1873 118.428C21.8998 118.167 21.6646 117.866 21.5078 117.539C21.4033 117.317 21.3249 117.095 21.2726 116.873L24.4741 113.972C24.4741 113.972 24.5002 113.972 24.5133 113.985C24.8661 114.155 25.1274 114.338 25.3104 114.547C25.5586 114.821 25.6893 115.122 25.7024 115.462C25.7155 115.801 25.637 116.141 25.4541 116.494V116.481Z" fill="#F8F7E5"/>
<path d="M20.1895 112.169C20.882 111.685 21.3916 111.123 21.6922 110.483C21.9927 109.843 22.1103 109.176 22.045 108.51C21.9797 107.844 21.7575 107.229 21.3655 106.668C20.9866 106.119 20.5161 105.701 19.9412 105.413C19.3662 105.126 18.739 105.008 18.0595 105.073C17.38 105.126 16.6744 105.4 15.9557 105.897C15.237 106.393 14.7143 106.955 14.4138 107.582C14.1132 108.209 13.9826 108.85 14.0479 109.49C14.1132 110.143 14.3354 110.731 14.7143 111.293C15.0933 111.842 15.5768 112.273 16.1517 112.574C16.7397 112.874 17.367 113.005 18.0595 112.966C18.7521 112.927 19.4577 112.652 20.1633 112.169H20.1895ZM16.5568 111.163C16.4392 111.123 16.3216 111.058 16.204 110.967C16.0864 110.875 15.9818 110.758 15.8904 110.627C15.6813 110.326 15.629 110 15.7205 109.66C15.812 109.32 16.021 108.98 16.3216 108.654C16.6221 108.314 17.0011 108 17.4323 107.7C17.6936 107.517 17.968 107.36 18.2555 107.203C18.5561 107.046 18.8305 106.942 19.1049 106.877C19.3793 106.811 19.6276 106.824 19.8628 106.903C20.0065 107.02 20.1241 107.151 20.2287 107.295C20.4508 107.608 20.5161 107.948 20.4377 108.288C20.3593 108.641 20.1764 108.967 19.8889 109.307C19.6014 109.647 19.2356 109.947 18.8174 110.248C18.4123 110.522 18.0072 110.744 17.6022 110.914C17.1971 111.084 16.8443 111.163 16.5307 111.15L16.5568 111.163Z" fill="#F8F7E5"/>
<path d="M17.7604 101.427C17.7081 101.218 17.6297 100.983 17.499 100.722C17.3684 100.46 17.2507 100.212 17.0939 99.9636C16.9371 99.7154 16.7934 99.5194 16.6366 99.3626L13.9056 99.4671L15.8918 97.494C15.8395 97.298 15.7611 97.0758 15.6566 96.8145C15.5389 96.5662 15.4083 96.3179 15.2645 96.0696C15.1208 95.8214 14.964 95.6254 14.7941 95.4555L8.23441 96.2656C8.23441 96.2656 8.11681 96.1611 8.06454 96.1088C7.89467 95.9651 7.72479 95.8344 7.54185 95.7038L6.92769 96.0435L7.29357 96.8145L7.46345 97.1673L7.80319 97.8729L8.54802 99.441L9.29285 99.1012V98.2388L13.7096 96.9582L13.7749 97.0889L12.5204 97.9774L9.31898 100.891L10.495 102.865L12.5204 100.852L15.4605 100.63L15.5259 100.774L14.2714 101.728L11.8279 103.936C11.8279 103.936 11.8017 103.91 11.7756 103.897C11.6057 103.753 11.4228 103.609 11.2529 103.479L10.6388 103.832L11.0308 104.655L11.5012 105.661L12.2722 107.281L13.017 106.942V105.975L17.7734 101.388L17.7604 101.427Z" fill="#F8F7E5"/>
<path d="M7.27693 93.1053L12.3731 91.7333C12.4254 91.8117 12.4515 91.8639 12.5038 91.9423C12.7129 92.2429 12.9219 92.4912 13.1441 92.7002L13.6406 92.5173L13.3531 91.4588L13.0526 90.3351L12.5299 88.4011L11.772 88.5449C11.6806 88.8324 11.6283 89.1329 11.6152 89.4726C11.6152 89.4988 11.6152 89.538 11.6152 89.5641L7.4468 90.6879C7.25079 90.5049 7.06785 90.322 6.92411 90.126C6.74117 89.8908 6.6105 89.6686 6.55823 89.4596C6.46676 89.146 6.51903 88.8716 6.70197 88.6233C6.89798 88.375 7.25079 88.179 7.76041 88.0483L11.1971 87.1206C11.4061 87.4211 11.6152 87.6694 11.8374 87.8784L12.3339 87.6955L11.9158 86.1536L11.759 85.5786L11.2363 83.6447L10.4784 83.7884C10.3869 84.0759 10.3477 84.4026 10.3346 84.7946C10.3346 84.8599 10.3346 84.9122 10.3346 84.9775L7.01558 85.8792C6.6105 85.9837 6.29689 86.0883 6.04861 86.1667C5.8134 86.2451 5.63046 86.3235 5.48672 86.3888C5.35605 86.4541 5.25151 86.5195 5.18618 86.5979C4.99017 86.8069 4.84644 87.0291 4.75497 87.2904C4.6635 87.5518 4.61122 87.8 4.58509 88.0614C4.57202 88.3097 4.58509 88.5449 4.62429 88.7539C4.78109 89.0284 5.0163 89.342 5.32991 89.6817C5.64353 90.0215 6.00941 90.3612 6.44063 90.7271C6.51903 90.7924 6.62357 90.8578 6.70197 90.9231L6.00941 91.106L5.47365 92.0599C5.61739 92.5042 5.80034 92.9616 6.00941 93.4058C6.23155 93.8501 6.46676 94.2552 6.7281 94.6211L7.42067 94.3206L7.25079 93.1445L7.27693 93.1053Z" fill="#F8F7E5"/>
<path d="M10.0614 77.7891C10.2052 77.6715 10.3359 77.5146 10.4665 77.3317C10.5972 77.1488 10.7279 76.9397 10.8455 76.7437C10.9631 76.5477 11.0415 76.3517 11.0938 76.1949C10.9239 75.9727 10.6756 75.7767 10.3881 75.5807C10.0876 75.3847 9.8001 75.254 9.53876 75.1756C9.40808 75.2802 9.27742 75.4239 9.13368 75.5807C8.98994 75.7506 8.87233 75.9335 8.74166 76.1295C8.62405 76.3255 8.53259 76.5215 8.49339 76.7045C8.63713 76.9136 8.85926 77.1096 9.15981 77.3056C9.46035 77.5016 9.7609 77.6584 10.0614 77.776V77.7891Z" fill="#F8F7E5"/>
<path d="M0.218754 67.1918C0.414761 67.819 0.728374 68.3417 1.15959 68.7337C1.59081 69.1257 2.11349 69.3609 2.74071 69.4132C3.32873 69.4655 3.83835 69.3609 4.26957 69.0996C4.70078 68.8382 5.0536 68.4985 5.36721 68.0803C5.68082 67.6622 5.9683 67.231 6.22964 66.7998C6.47792 66.3685 6.71312 65.9896 6.9222 65.6629C7.13127 65.3362 7.36648 65.0749 7.61475 64.905C7.86303 64.7352 8.15051 64.6437 8.46412 64.6698C8.69933 64.696 8.92147 64.7744 9.15668 64.9312C9.39189 65.088 9.57483 65.3232 9.70551 65.6368C9.6663 66.0549 9.5879 66.4861 9.44416 66.9304C9.35269 67.244 9.20895 67.5446 9.03908 67.8321L6.79153 68.394L6.68699 69.5177C6.97446 69.6092 7.30114 69.6876 7.66702 69.766C8.0329 69.8444 8.39878 69.9097 8.73853 69.9489C9.07828 69.9881 9.35269 70.0143 9.56177 70.0273C9.81004 69.7268 10.0191 69.3609 10.2151 68.9428C10.3981 68.5246 10.5418 68.0934 10.6594 67.6361C10.777 67.1787 10.8423 66.7736 10.8815 66.3947C10.9469 65.7021 10.8815 65.0488 10.6986 64.4477C10.5157 63.8466 10.202 63.337 9.75777 62.9319C9.32655 62.5268 8.76467 62.3047 8.09824 62.2393C7.47102 62.1871 6.94833 62.2785 6.51712 62.5268C6.0859 62.7751 5.70695 63.1148 5.39334 63.533C5.07973 63.9511 4.79225 64.3954 4.53091 64.8528C4.28263 65.2709 4.04742 65.6499 3.83835 66.0027C3.62927 66.3555 3.39407 66.6299 3.17193 66.8259C2.93672 67.035 2.67538 67.1134 2.36176 67.0872C2.13962 67.0611 1.90441 66.9827 1.68227 66.852C1.46013 66.7083 1.29025 66.5123 1.17265 66.264C1.21185 65.6629 1.34253 65.0749 1.57774 64.5261C1.64307 64.3823 1.73454 64.2647 1.81295 64.1341L3.60314 63.8466L3.72075 62.5921C3.40714 62.4876 3.08046 62.4092 2.74071 62.3439C2.40097 62.2785 2.06122 62.2263 1.74761 62.174C1.42093 62.1348 1.13346 62.0956 0.88518 62.0695C0.754509 62.3177 0.636896 62.6183 0.519292 62.945C0.401688 63.2716 0.310224 63.6244 0.218754 64.0034C0.127283 64.3823 0.0750151 64.7482 0.0358143 65.1141C-0.0295219 65.8589 0.0358162 66.5515 0.231823 67.1787L0.218754 67.1918Z" fill="#F8F7E5"/>
<path d="M5.51261 59.8981C6.03529 60.3554 6.68865 60.669 7.48575 60.852C8.0999 60.9826 8.67486 61.0088 9.22368 60.9042C9.7725 60.7997 10.256 60.6037 10.6872 60.2901C11.1184 59.9895 11.4712 59.5975 11.7456 59.114C12.02 58.6306 12.1899 58.0948 12.2422 57.4807L11.6019 55.0502L10.7656 55.207C10.8309 55.5337 10.8701 55.8473 10.8832 56.1347C10.8832 56.4222 10.8701 56.6966 10.8179 56.958C10.7133 57.4415 10.5043 57.8204 10.1906 58.1079C9.87703 58.3953 9.49809 58.5783 9.04074 58.6567C8.58339 58.7351 8.0999 58.722 7.57722 58.6044C7.1852 58.513 6.80626 58.3692 6.41424 58.1471C6.03529 57.938 5.69555 57.6375 5.43421 57.2716C5.63021 56.9449 5.90463 56.6444 6.24437 56.3961C6.58412 56.1347 6.97613 55.9126 7.42042 55.7297L6.64945 53.8088C6.2313 53.8872 5.87849 54.044 5.56487 54.2792C5.25126 54.5144 5.00299 54.7888 4.79392 55.1286C4.58484 55.4683 4.4411 55.8342 4.34963 56.2393C4.19282 56.9449 4.21896 57.6113 4.41497 58.2647C4.62404 58.905 4.97686 59.4669 5.49955 59.9242L5.51261 59.8981Z" fill="#F8F7E5"/>
<path d="M7.13836 51.5358L12.1169 53.2868C12.1169 53.3782 12.1169 53.4566 12.1169 53.5481C12.1169 53.914 12.1431 54.2407 12.2084 54.5412L12.7311 54.6719L13.097 53.6265L13.8549 51.4704L14.3906 49.9416L13.685 49.628C13.5413 49.7586 13.3975 49.9154 13.2407 50.1114C13.0839 50.3074 12.9402 50.5035 12.8095 50.7125C12.7442 50.8171 12.6788 50.9216 12.6266 51.0261L9.56885 49.9546C9.56885 49.9546 9.55578 49.9285 9.54271 49.9154C9.32057 49.5626 9.1507 49.2359 9.02003 48.9223C8.88936 48.6087 8.79789 48.2951 8.73256 47.9946L10.5097 48.3212L10.9278 47.1321C10.7449 46.9884 10.5358 46.8446 10.3006 46.6878C10.0654 46.531 9.81713 46.3873 9.55578 46.2566C9.29444 46.126 9.04616 46.0084 8.79789 45.9038C8.54961 45.7993 8.34054 45.7078 8.14453 45.6555C7.87012 45.8254 7.66105 46.0737 7.49117 46.3873C7.33437 46.714 7.25597 47.0668 7.26903 47.4588L8.34054 49.5104L7.22983 49.1183L6.26286 49.6018C6.13219 50.0592 6.02765 50.5296 5.94925 51.0131C5.87085 51.4966 5.84471 51.967 5.85778 52.4113L6.60261 52.555L7.12529 51.4966L7.13836 51.5358Z" fill="#F8F7E5"/>
<path d="M17.0917 44.6252C17.3922 44.0241 17.5229 43.41 17.4967 42.7697C17.4706 42.1294 17.2615 41.5283 16.8826 40.9534C16.5036 40.3784 15.9156 39.908 15.1447 39.516C14.3606 39.124 13.6158 38.941 12.9232 38.9802C12.2307 39.0194 11.6165 39.2285 11.0808 39.5944C10.545 39.9603 10.1269 40.4437 9.82632 41.0448C9.52578 41.6459 9.38204 42.2731 9.40817 42.9265C9.43431 43.5799 9.61724 44.2071 9.99619 44.782C10.3751 45.3701 10.937 45.8535 11.708 46.2325C12.4659 46.6114 13.1976 46.7813 13.9163 46.729C14.635 46.6768 15.2623 46.4677 15.8111 46.0887C16.3599 45.7098 16.7911 45.2133 17.0917 44.6122V44.6252ZM15.21 44.6122C14.8702 44.7167 14.4782 44.7167 14.047 44.6122C13.6158 44.5207 13.1715 44.3639 12.7142 44.1287C12.2699 43.9065 11.8779 43.6583 11.5381 43.3969C11.1984 43.1225 10.9501 42.8481 10.8064 42.5737C10.7802 42.4561 10.7802 42.3254 10.8064 42.1686C10.8325 42.0249 10.8848 41.8681 10.9501 41.7374C11.1069 41.4107 11.3682 41.2016 11.708 41.1232C12.0477 41.0448 12.4398 41.0579 12.884 41.1624C13.3283 41.267 13.7857 41.4368 14.2561 41.6721C14.5305 41.8158 14.818 41.9726 15.0924 42.1555C15.3668 42.3385 15.602 42.5345 15.7849 42.7436C15.9679 42.9526 16.0855 43.1748 16.1247 43.423C16.0986 43.606 16.0332 43.7759 15.9548 43.9327C15.7849 44.2724 15.5236 44.5076 15.1839 44.5991L15.21 44.6122Z" fill="#F8F7E5"/>
<path d="M10.8072 34.4969L18.4384 39.3579C18.4123 39.4493 18.3862 39.5408 18.36 39.6453C18.2816 39.9982 18.2293 40.3248 18.2163 40.6384L18.6867 40.8867L19.5491 39.5408L19.9673 38.8874L21.1172 37.0842L20.503 36.6138C20.2417 36.7444 19.9542 36.9274 19.6798 37.1757C19.6145 37.2279 19.5753 37.2802 19.523 37.3194L11.4083 32.1579L10.3891 32.4453C10.1539 32.8504 9.94477 33.2816 9.76183 33.7521C9.57889 34.2094 9.44822 34.6668 9.34368 35.098L10.0493 35.4247L10.7941 34.4969H10.8072Z" fill="#F8F7E5"/>
<path d="M14.2455 29.4021L21.4455 34.9034C21.4194 34.9949 21.3802 35.0863 21.3541 35.1778C21.2365 35.5306 21.1711 35.8442 21.1319 36.1578L21.5893 36.4453L22.2818 35.5306L23.0267 34.5636L24.3203 32.8649L23.7454 32.3422C23.4709 32.4468 23.1704 32.6036 22.8699 32.8257C22.8045 32.878 22.7653 32.9172 22.7 32.9564L15.0688 27.1154L14.0365 27.3114C13.762 27.6903 13.5268 28.1085 13.3047 28.5528C13.0826 28.997 12.9127 29.4283 12.782 29.8595L13.4615 30.2384L14.2717 29.376L14.2455 29.4021Z" fill="#F8F7E5"/>
<path d="M24.4449 18.2529L26.1044 20.0823C25.8169 20.2391 25.5295 20.409 25.2681 20.6573C24.7977 21.0754 24.4579 21.5328 24.2358 22.0293C24.0137 22.5259 23.883 23.0355 23.8699 23.5582C23.8569 24.0808 23.9483 24.5905 24.1313 25.087C24.3142 25.5836 24.6017 26.0409 24.9806 26.446C25.4511 26.9687 25.9999 27.3476 26.614 27.5959C27.2282 27.8442 27.8554 27.9357 28.4957 27.8442C29.1229 27.7527 29.7109 27.4652 30.2336 26.9687L30.691 24.8257C30.9131 24.9302 31.1353 25.0086 31.3705 25.0347C31.6318 25.0609 31.8801 25.0609 32.1022 25.0217C32.3244 24.9825 32.5073 24.891 32.638 24.7734L33.3828 22.748L32.8079 22.3168C32.7164 22.4344 32.6249 22.5389 32.5465 22.6435C32.4681 22.748 32.3897 22.8264 32.2982 22.9048C32.2068 22.9832 32.1153 23.0224 32.0238 23.0224C31.9193 23.0224 31.8409 22.9832 31.7625 22.9048L25.6471 16.1491H24.5886C24.2489 16.4888 23.9353 16.8547 23.6347 17.2467C23.3342 17.6518 23.0859 18.0438 22.8899 18.4358L23.491 18.9324L24.4449 18.2398V18.2529ZM29.4757 25.283C29.2013 25.5313 28.9008 25.662 28.561 25.675C28.2213 25.6881 27.8815 25.6097 27.5287 25.4268C27.1759 25.2438 26.8623 24.9955 26.5618 24.6689C26.2351 24.303 25.9737 23.8979 25.7908 23.4536C25.6079 23.0093 25.5295 22.5781 25.5817 22.16C25.8431 21.8725 26.1436 21.6373 26.4703 21.4805C26.6924 21.3759 26.9146 21.2975 27.1367 21.2453L30.0376 24.4467C30.0376 24.4467 30.0376 24.4729 30.0246 24.4859C29.8547 24.8387 29.6587 25.1001 29.4627 25.283H29.4757Z" fill="#F8F7E5"/>
<path d="M33.557 21.6768C34.1973 21.9773 34.8637 22.0949 35.5301 22.0427C36.1966 21.9773 36.8107 21.7552 37.3726 21.3632C37.9214 20.9842 38.3396 20.5138 38.6271 19.9389C38.9145 19.3639 39.0321 18.7367 38.9668 18.0572C38.9145 17.3777 38.6401 16.6721 38.1436 15.9534C37.647 15.2347 37.0851 14.712 36.4579 14.4115C35.8307 14.1109 35.1904 13.9802 34.5501 14.0456C33.8967 14.1109 33.3087 14.333 32.7468 14.712C32.198 15.0909 31.7668 15.5744 31.4662 16.1494C31.1657 16.7374 31.035 17.3646 31.0742 18.0572C31.1134 18.7498 31.3879 19.4554 31.8713 20.161C32.3548 20.8536 32.9167 21.3632 33.557 21.6637V21.6768ZM33.0604 16.1886C33.1519 16.071 33.2695 15.9664 33.4002 15.875C33.7007 15.6659 34.0274 15.6136 34.3672 15.7051C34.7069 15.7966 35.0467 16.0056 35.3733 16.3062C35.7 16.6067 36.0267 16.9857 36.3272 17.4169C36.5102 17.6782 36.667 17.9527 36.8238 18.2532C36.9806 18.5537 37.0851 18.8282 37.1505 19.1026C37.2158 19.377 37.2027 19.6253 37.1243 19.8605C37.0067 20.0042 36.8761 20.1218 36.7323 20.2263C36.4187 20.4485 36.079 20.5138 35.7392 20.4354C35.3995 20.357 35.0467 20.1741 34.72 19.8735C34.3933 19.5861 34.0797 19.2202 33.7922 18.802C33.5178 18.3969 33.2957 17.9919 33.1258 17.5868C32.9559 17.1817 32.8775 16.8289 32.8906 16.5153C32.9298 16.3977 32.9951 16.2931 33.0866 16.1755L33.0604 16.1886Z" fill="#F8F7E5"/>
<path d="M37.0216 12.9897L37.9886 12.9897L42.5752 17.7461C42.7843 17.6938 43.0195 17.6154 43.2808 17.4848C43.5422 17.3541 43.7904 17.2365 44.0387 17.0797C44.287 16.9229 44.483 16.7791 44.6398 16.6223L44.5353 13.8913L46.5084 15.8775C46.7044 15.8252 46.9266 15.7468 47.1879 15.6292C47.4492 15.5116 47.6845 15.3809 47.9327 15.2372C48.181 15.0935 48.377 14.9367 48.5469 14.7799L47.7367 8.22014C47.7367 8.22014 47.8412 8.10254 47.8935 8.05027C48.0373 7.88039 48.1679 7.69745 48.2986 7.52758L47.9589 6.91342L47.201 7.26624L45.4108 8.11561L44.5483 8.52069L44.8881 9.26551H45.7374L47.018 13.6822L46.8874 13.7475L45.9988 12.4931L43.0848 9.29165L41.1117 10.4677L43.124 12.4931L43.3462 15.4332L43.2024 15.4986L42.2485 14.2441L40.0402 11.8005C40.0402 11.8005 40.0663 11.7744 40.0794 11.7483C40.2231 11.5784 40.3668 11.3955 40.4975 11.2256L40.1316 10.6114L39.3084 11.0034L38.3022 11.4739L36.6819 12.2448L37.0216 12.9897Z" fill="#F8F7E5"/>
<path d="M50.9222 7.2652L52.2942 12.3614C52.2158 12.4137 52.1505 12.4398 52.0721 12.4921C51.7716 12.7011 51.5233 12.9102 51.3142 13.1323L51.4972 13.6289L53.0391 13.2108L54.7639 12.7403L55.6133 12.5182L55.4696 11.7603C55.1821 11.6688 54.8815 11.6166 54.5418 11.6035C54.5157 11.6035 54.4895 11.6035 54.4503 11.6035L53.3266 7.43507C53.5095 7.23906 53.6924 7.05612 53.8884 6.91238C54.1237 6.72944 54.3458 6.59877 54.5549 6.5465C54.8685 6.45503 55.1429 6.49423 55.3912 6.69024C55.6394 6.88625 55.8354 7.23907 55.9661 7.74869L56.8939 11.1853C56.5933 11.3944 56.3451 11.6035 56.136 11.8256L56.3189 12.3222L57.3904 12.0347L58.2921 11.7864L60.3828 11.2245L60.2391 10.4666C59.9516 10.3752 59.6119 10.336 59.2198 10.3229C59.1545 10.3229 59.1022 10.3229 59.0369 10.3229L58.1353 6.99079C58.0307 6.58571 57.9262 6.2721 57.8478 6.02382C57.7694 5.78861 57.691 5.60567 57.6256 5.46193C57.5603 5.33126 57.495 5.22672 57.4166 5.16139C57.2075 4.96538 56.9854 4.82164 56.724 4.73017C56.4627 4.6387 56.2144 4.58643 55.9531 4.5603C55.6917 4.53416 55.4696 4.5603 55.2605 4.5995C54.9861 4.7563 54.6725 4.99151 54.3327 5.30513C53.993 5.61874 53.6402 5.98461 53.2874 6.41583C53.222 6.49423 53.1567 6.59878 53.0913 6.67718L52.9084 5.97155L51.9545 5.43579C51.5102 5.57953 51.0529 5.76248 50.6086 5.97155C50.1643 6.19369 49.7592 6.4289 49.3933 6.69024L49.6939 7.3828L50.8699 7.21293L50.9222 7.2652Z" fill="#F8F7E5"/>
<path d="M67.2601 10.8338C67.4691 10.9514 67.639 11.0298 67.8089 11.082C68.031 10.9122 68.227 10.6639 68.423 10.3764C68.619 10.0759 68.7497 9.78838 68.8281 9.52704C68.7236 9.39637 68.5798 9.2657 68.423 9.12196C68.2532 8.97822 68.0702 8.86062 67.8742 8.72995C67.6782 8.59928 67.4822 8.52087 67.2993 8.48167C67.0902 8.62541 66.8942 8.84755 66.6982 9.1481C66.5022 9.44864 66.3454 9.74918 66.2278 10.0497C66.3454 10.1935 66.5022 10.3241 66.6851 10.4548C66.8681 10.5855 67.0641 10.7161 67.2731 10.8338H67.2601Z" fill="#F8F7E5"/>
<path d="M76.35 10.6633C76.8074 10.7809 77.2124 10.8462 77.5914 10.8854C78.284 10.9508 78.9373 10.8854 79.5515 10.7025C80.1526 10.5196 80.6622 10.206 81.0542 9.76167C81.4462 9.31739 81.6814 8.76857 81.7467 8.10215C81.799 7.47493 81.7075 6.95224 81.4593 6.52102C81.211 6.08981 80.8712 5.71086 80.4531 5.39725C80.035 5.08364 79.5907 4.79616 79.1333 4.53481C78.7152 4.28654 78.3362 4.05133 77.9834 3.84226C77.6306 3.63318 77.3562 3.39798 77.1602 3.17584C76.9511 2.94063 76.8727 2.67928 76.8988 2.36567C76.925 2.14353 77.0034 1.90832 77.1471 1.68617C77.2909 1.46403 77.4869 1.29416 77.7351 1.17656C78.3362 1.21576 78.9242 1.34644 79.4731 1.58164C79.6168 1.63391 79.7344 1.73845 79.8651 1.81685L80.1526 3.60705L81.407 3.72466C81.5115 3.41104 81.5899 3.08437 81.6553 2.74462C81.7206 2.40487 81.7729 2.06513 81.8251 1.75151C81.8643 1.42484 81.9036 1.13736 81.9297 0.889087C81.6814 0.758415 81.3809 0.640802 81.0542 0.523198C80.7275 0.405594 80.3747 0.31413 79.9958 0.22266C79.6168 0.131189 79.2509 0.0789213 78.885 0.0397205C78.1402 -0.0256157 77.4477 0.0397224 76.8074 0.235729C76.1671 0.431737 75.6575 0.74534 75.2654 1.17656C74.8734 1.60777 74.6382 2.13047 74.586 2.75769C74.5337 3.34571 74.6382 3.85533 74.8996 4.28654C75.1609 4.70469 75.5007 5.07057 75.9188 5.38418C76.337 5.69779 76.7682 5.98527 77.1994 6.24662C77.6306 6.49489 78.0095 6.7301 78.3362 6.93917C78.6629 7.14825 78.9242 7.38345 79.0941 7.63173C79.2771 7.88001 79.3555 8.16749 79.3293 8.4811C79.3032 8.71631 79.2248 8.93845 79.068 9.17365C78.9112 9.40886 78.676 9.5918 78.3624 9.72247C77.9442 9.68327 77.513 9.60487 77.0687 9.46113C76.7551 9.36966 76.4546 9.22593 76.1671 9.05605L75.6052 6.8085L74.4814 6.70396C74.3899 6.99144 74.3115 7.31812 74.2331 7.684C74.1547 8.04988 74.0894 8.41576 74.0502 8.75551C74.011 9.09525 73.9849 9.36966 73.9718 9.57873C74.2723 9.82701 74.6382 10.0361 75.0564 10.2321C75.4745 10.415 75.9057 10.5588 76.3631 10.6764L76.35 10.6633Z" fill="#F8F7E5"/>
<path d="M83.7322 10.7028C84.0327 11.134 84.4247 11.4869 84.9082 11.7613C85.3917 12.0357 85.9275 12.2055 86.5416 12.2578L88.9721 11.6175L88.8284 10.7812C88.5017 10.8466 88.1881 10.8858 87.9006 10.8988C87.6131 10.8988 87.3387 10.8858 87.0774 10.8335C86.5939 10.729 86.215 10.5199 85.9275 10.2063C85.64 9.89266 85.4571 9.51372 85.3787 9.05637C85.3002 8.59902 85.3133 8.11553 85.4309 7.59284C85.5224 7.20083 85.6661 6.82188 85.8883 6.42987C86.1104 6.03785 86.3979 5.71117 86.7638 5.44983C87.0904 5.6589 87.391 5.92024 87.6393 6.25999C87.9006 6.59973 88.1228 6.99175 88.3057 7.43603L90.2266 6.66508C90.1482 6.24693 89.9914 5.89411 89.7692 5.5805C89.534 5.26689 89.2596 5.01862 88.9198 4.80954C88.5801 4.60047 88.2142 4.45672 87.8091 4.36525C87.1035 4.20845 86.4371 4.23459 85.7837 4.43059C85.1304 4.6266 84.5816 4.99247 84.1242 5.51516C83.6669 6.03785 83.3402 6.69121 83.1703 7.4883C83.0396 8.10246 83.0135 8.67741 83.118 9.22623C83.2226 9.77505 83.4186 10.2585 83.7322 10.7028Z" fill="#F8F7E5"/>
<path d="M90.4512 12.0857C90.0853 12.0857 89.7586 12.1118 89.4581 12.1772L89.3274 12.6998L90.3728 13.0657L91.98 13.6276L92.4374 13.7844L92.5289 13.8236L94.0577 14.3594L94.3713 13.6537C94.2407 13.51 94.0839 13.3663 93.8879 13.2095C93.6918 13.0527 93.4958 12.9089 93.2868 12.7783C93.1692 12.7129 93.0777 12.6476 92.9731 12.5953L94.0447 9.53759C94.0447 9.53759 94.0708 9.52453 94.0839 9.51146C94.4367 9.28932 94.7634 9.11945 95.077 8.98878C95.3906 8.85811 95.7042 8.76663 96.0047 8.7013L95.678 10.4784L96.8672 10.8966C97.0109 10.7136 97.1546 10.5046 97.3114 10.2694C97.4682 10.0342 97.612 9.78587 97.7427 9.52452C97.8733 9.26318 97.9909 9.01491 98.0955 8.76664C98.2 8.51836 98.2915 8.30929 98.3438 8.11328C98.1739 7.83887 97.9256 7.6298 97.612 7.45992C97.2984 7.30312 96.9325 7.22471 96.5405 7.23777L94.4889 8.30929L94.881 7.19857L94.3975 6.23161C93.9532 6.10094 93.4828 5.9964 92.9862 5.918C92.5027 5.8396 92.0323 5.81346 91.588 5.82653L91.4443 6.57136L92.5027 7.09404L90.7517 12.0726C90.6603 12.0726 90.5949 12.0726 90.4904 12.0726L90.4512 12.0857Z" fill="#F8F7E5"/>
<path d="M97.272 13.9046C97.3242 14.6233 97.5333 15.2505 97.9123 15.7994C98.2912 16.3482 98.7878 16.7794 99.3889 17.0799C99.9899 17.3805 100.604 17.5112 101.244 17.485C101.885 17.4589 102.486 17.2498 103.061 16.8709C103.636 16.4919 104.106 15.9039 104.498 15.1329C104.89 14.3489 105.073 13.6041 105.034 12.9115C104.995 12.219 104.786 11.6048 104.42 11.069C104.054 10.5333 103.57 10.1151 102.969 9.8146C102.368 9.51406 101.741 9.37032 101.088 9.39645C100.434 9.40952 99.807 9.60553 99.232 9.98448C98.644 10.3634 98.1605 10.9253 97.7816 11.6963C97.4026 12.4542 97.2328 13.1859 97.285 13.9046H97.272ZM99.3889 14.0484C99.4803 13.6171 99.6371 13.1729 99.8723 12.7155C100.094 12.2712 100.343 11.8792 100.604 11.5395C100.879 11.1997 101.153 10.9514 101.427 10.8077C101.545 10.7816 101.676 10.7816 101.832 10.8077C101.976 10.8338 102.133 10.8861 102.264 10.9514C102.59 11.1083 102.799 11.3696 102.878 11.7093C102.956 12.0491 102.943 12.4411 102.839 12.8854C102.734 13.3297 102.564 13.787 102.329 14.2574C102.185 14.5318 102.028 14.8193 101.845 15.0937C101.663 15.3681 101.467 15.6033 101.257 15.7863C101.048 15.9692 100.826 16.0868 100.578 16.126C100.395 16.0999 100.225 16.0346 100.068 15.9562C99.7155 15.7863 99.4934 15.5249 99.4019 15.1852C99.2974 14.8455 99.2974 14.4534 99.4019 14.0222L99.3889 14.0484Z" fill="#F8F7E5"/>
<path d="M104.644 18.4384C104.552 18.4123 104.461 18.3862 104.356 18.36C104.003 18.2816 103.677 18.2293 103.363 18.2163L103.115 18.6867L104.461 19.5491L105.114 19.9673L106.917 21.1172L107.388 20.503C107.257 20.2417 107.074 19.9542 106.826 19.6798C106.774 19.6145 106.721 19.5753 106.682 19.523L111.844 11.4083L111.556 10.3891C111.151 10.1539 110.72 9.94477 110.25 9.76183C109.792 9.57889 109.335 9.44822 108.904 9.34368L108.59 10.0493L109.518 10.7941L104.657 18.4254L104.644 18.4384Z" fill="#F8F7E5"/>
<path d="M109.11 21.4299C109.019 21.4038 108.927 21.3646 108.836 21.3384C108.483 21.2208 108.17 21.1555 107.856 21.1163L107.568 21.5736L108.483 22.2662L109.45 23.011L111.149 24.3047L111.672 23.7297C111.567 23.4553 111.41 23.1548 111.188 22.8542C111.136 22.7889 111.097 22.7497 111.057 22.6844L116.898 15.0531L116.702 14.0208C116.31 13.7464 115.905 13.5112 115.461 13.2891C115.017 13.0669 114.586 12.8971 114.154 12.7664L113.775 13.4459L114.638 14.256L109.137 21.456L109.11 21.4299Z" fill="#F8F7E5"/>
<path d="M116.154 28.4723C116.245 29.0995 116.533 29.6875 117.029 30.2102L119.159 30.6675C119.055 30.8897 118.976 31.1118 118.95 31.347C118.924 31.6084 118.924 31.8566 118.963 32.0788C119.003 32.3009 119.094 32.4839 119.212 32.6145L121.237 33.3594L121.668 32.7844C121.551 32.6929 121.446 32.6015 121.342 32.5231C121.237 32.4447 121.159 32.3663 121.08 32.2748C121.002 32.1833 120.963 32.0919 120.963 32.0004C120.963 31.8959 121.002 31.8174 121.08 31.739L127.836 25.6236V24.5652C127.496 24.2254 127.13 23.9118 126.738 23.6113C126.346 23.3107 125.941 23.0625 125.549 22.8665L125.053 23.4675L125.745 24.4214L123.916 26.081C123.759 25.7935 123.589 25.506 123.341 25.2447C122.923 24.7743 122.465 24.4345 121.969 24.2124C121.472 23.9902 120.963 23.8596 120.44 23.8465C119.917 23.8334 119.408 23.9249 118.911 24.1078C118.415 24.2908 117.957 24.5782 117.552 24.9572C117.029 25.4276 116.65 25.9764 116.389 26.5906C116.141 27.2047 116.049 27.832 116.141 28.4723H116.154ZM118.571 27.5314C118.754 27.1786 119.003 26.865 119.329 26.5644C119.695 26.2378 120.1 25.9764 120.544 25.7935C120.989 25.6106 121.42 25.5321 121.838 25.5844C122.126 25.8458 122.361 26.1463 122.518 26.473C122.622 26.6951 122.701 26.9173 122.753 27.1394L119.551 30.0403C119.551 30.0403 119.525 30.0403 119.512 30.0272C119.159 29.8574 118.898 29.6614 118.715 29.4654C118.467 29.1909 118.336 28.8904 118.323 28.5507C118.31 28.2109 118.388 27.8712 118.571 27.5184V27.5314Z" fill="#F8F7E5"/>
<path d="M123.839 31.8596C123.147 32.3431 122.637 32.905 122.337 33.5453C122.036 34.1856 121.905 34.852 121.971 35.5184C122.036 36.1848 122.258 36.799 122.65 37.3609C123.029 37.9097 123.5 38.3279 124.075 38.6153C124.65 38.9028 125.277 39.0204 125.956 38.9551C126.636 38.9028 127.341 38.6284 128.06 38.1319C128.779 37.6353 129.301 37.0734 129.602 36.4462C129.903 35.819 130.033 35.1787 129.968 34.5384C129.903 33.885 129.68 33.297 129.301 32.7351C128.923 32.1863 128.439 31.7551 127.864 31.4545C127.289 31.154 126.649 31.0233 125.956 31.0625C125.264 31.1017 124.558 31.3761 123.852 31.8596H123.839ZM127.472 32.8658C127.59 32.905 127.707 32.9703 127.825 33.0618C127.943 33.1533 128.047 33.2709 128.139 33.4015C128.348 33.7021 128.4 34.0288 128.308 34.3685C128.217 34.7083 128.008 35.048 127.707 35.3747C127.407 35.7144 127.028 36.028 126.597 36.3286C126.335 36.5115 126.061 36.6683 125.76 36.8251C125.46 36.9819 125.185 37.0865 124.911 37.1518C124.637 37.2172 124.388 37.2041 124.153 37.1257C124.009 37.0081 123.892 36.8774 123.787 36.7337C123.565 36.4201 123.5 36.0803 123.578 35.7406C123.656 35.4008 123.839 35.0611 124.14 34.7213C124.427 34.3946 124.793 34.081 125.211 33.7936C125.617 33.5192 126.022 33.297 126.427 33.1271C126.832 32.9573 127.185 32.8789 127.498 32.8919L127.472 32.8658Z" fill="#F8F7E5"/>
<path d="M126.256 42.5596C126.308 42.7686 126.386 43.0038 126.517 43.2652C126.648 43.5265 126.765 43.7748 126.922 44.0231C127.079 44.2714 127.223 44.4674 127.38 44.6242L130.111 44.5196L128.124 46.4928C128.177 46.6888 128.255 46.9109 128.373 47.1723C128.49 47.4205 128.621 47.6688 128.765 47.9171C128.908 48.1654 129.065 48.3614 129.235 48.5312L135.795 47.7211C135.795 47.7211 135.912 47.8256 135.965 47.8779C136.135 48.0216 136.304 48.1523 136.487 48.283L137.102 47.9432L136.932 47.5904L136.736 47.1853L136.37 46.4274L136.226 46.1269L135.481 44.5588L134.736 44.8986V45.7479L130.32 47.0285L130.254 46.8979L131.509 46.0093L134.71 43.0953L133.534 41.1222L131.522 43.1345L128.582 43.3567L128.516 43.2129L129.758 42.259L132.201 40.0507C132.201 40.0507 132.228 40.0768 132.254 40.0899C132.424 40.2336 132.606 40.3774 132.776 40.508L133.39 40.1421L132.998 39.3189V39.2928L131.77 36.7055L131.025 37.0452V38.0122L126.269 42.5988L126.256 42.5596Z" fill="#F8F7E5"/>
<path d="M136.738 50.9105L131.642 52.2825C131.59 52.2041 131.563 52.1388 131.511 52.0604C131.302 51.7598 131.093 51.5116 130.871 51.3025L130.374 51.4854L130.662 52.5439L131.263 54.7522L131.485 55.6016L132.243 55.4578C132.334 55.1704 132.387 54.8698 132.413 54.5301C132.413 54.5039 132.413 54.4778 132.413 54.4386L136.581 53.3148C136.777 53.4978 136.96 53.6807 137.104 53.8767C137.287 54.1119 137.418 54.3341 137.47 54.5431C137.561 54.8568 137.509 55.1312 137.326 55.3794C137.143 55.6277 136.777 55.8237 136.268 55.9544L132.831 56.8822C132.622 56.5816 132.413 56.3333 132.191 56.1243L131.694 56.3072L132.112 57.8491L132.23 58.2804L132.792 60.3711L133.55 60.2274C133.641 59.9399 133.68 59.6132 133.693 59.2081C133.693 59.1428 133.693 59.0905 133.693 59.0252L137.026 58.1235C137.431 58.019 137.744 57.9145 137.993 57.8361C138.241 57.7577 138.411 57.6793 138.554 57.627C138.685 57.5617 138.79 57.4963 138.855 57.4179C139.051 57.2088 139.195 56.9867 139.286 56.7254C139.378 56.464 139.43 56.2157 139.456 55.9544C139.469 55.7061 139.456 55.4709 139.417 55.2618C139.26 54.9874 139.025 54.6738 138.711 54.3341C138.398 53.9943 138.032 53.6415 137.601 53.2887C137.522 53.2234 137.418 53.158 137.339 53.0927L138.045 52.9098L138.581 51.9558C138.437 51.5116 138.254 51.0542 138.045 50.6099C137.823 50.1656 137.587 49.7606 137.326 49.3947L136.634 49.6952L136.803 50.8713L136.738 50.9105Z" fill="#F8F7E5"/>
<path d="M133.637 68.4309C133.937 68.6269 134.225 68.7575 134.486 68.8359C134.617 68.7314 134.747 68.6007 134.891 68.4309C135.035 68.261 135.152 68.078 135.283 67.882C135.401 67.686 135.492 67.49 135.531 67.3071C135.388 67.098 135.165 66.902 134.865 66.706C134.564 66.51 134.264 66.3532 133.963 66.2225C133.833 66.3401 133.689 66.4969 133.558 66.6799C133.427 66.8628 133.297 67.0588 133.179 67.2679C133.062 67.477 132.983 67.6599 132.931 67.8167C133.101 68.0388 133.336 68.2348 133.637 68.4309Z" fill="#F8F7E5"/>
<path d="M138.639 75.9721C138.325 76.3903 138.038 76.8215 137.776 77.2527C137.528 77.6839 137.293 78.0629 137.084 78.3896C136.875 78.7162 136.64 78.9776 136.391 79.1475C136.143 79.3304 135.856 79.4088 135.542 79.3827C135.307 79.3565 135.085 79.2781 134.849 79.1213C134.614 78.9645 134.431 78.7293 134.301 78.4157C134.34 77.9976 134.418 77.5663 134.562 77.122C134.653 76.8084 134.797 76.5079 134.967 76.2204L137.215 75.6585L137.319 74.5348C137.032 74.4433 136.705 74.3649 136.339 74.2865C135.973 74.2081 135.607 74.1427 135.268 74.1035C134.928 74.0643 134.653 74.0382 134.444 74.0251C134.196 74.3257 133.974 74.6916 133.791 75.1097C133.608 75.5279 133.451 75.9591 133.347 76.4164C133.229 76.8738 133.164 77.2789 133.125 77.6578C133.059 78.3504 133.125 79.0037 133.307 79.6048C133.49 80.2059 133.804 80.7155 134.235 81.1206C134.666 81.5257 135.228 81.7478 135.895 81.8132C136.522 81.8654 137.045 81.774 137.476 81.5257C137.907 81.2774 138.286 80.9377 138.6 80.5195C138.913 80.1014 139.201 79.6571 139.462 79.1997C139.71 78.7816 139.946 78.4026 140.155 78.0498C140.364 77.697 140.599 77.4226 140.834 77.2266C141.069 77.0306 141.331 76.9391 141.644 76.9652C141.866 76.9914 142.102 77.0698 142.324 77.2135C142.546 77.3573 142.716 77.5533 142.833 77.8015C142.794 78.4026 142.664 78.9906 142.428 79.5395C142.363 79.6832 142.272 79.8008 142.193 79.9315L140.403 80.219L140.285 81.4734C140.599 81.5779 140.926 81.6563 141.265 81.7217C141.605 81.787 141.945 81.8524 142.272 81.8916C142.598 81.9308 142.886 81.97 143.134 81.9961C143.265 81.7478 143.382 81.4603 143.5 81.1206C143.617 80.7939 143.709 80.4411 143.8 80.0622C143.892 79.6832 143.944 79.3173 143.983 78.9515C144.049 78.2066 143.983 77.5141 143.787 76.8738C143.591 76.2335 143.278 75.7239 142.846 75.3319C142.415 74.9398 141.893 74.7046 141.265 74.6524C140.677 74.6001 140.168 74.7046 139.736 74.966C139.305 75.2273 138.952 75.5671 138.639 75.9852V75.9721Z" fill="#F8F7E5"/>
<path d="M138.488 84.1281C137.965 83.6708 137.312 83.3441 136.515 83.1742C135.901 83.0435 135.326 83.0174 134.777 83.1219C134.228 83.2265 133.744 83.4225 133.3 83.7361C132.856 84.0497 132.516 84.4287 132.242 84.9121C131.967 85.3956 131.797 85.9314 131.745 86.5455L132.386 88.976L133.222 88.8323C133.156 88.5056 133.117 88.192 133.104 87.9045C133.104 87.617 133.117 87.3426 133.17 87.0813C133.274 86.5978 133.483 86.2189 133.797 85.9314C134.11 85.6439 134.489 85.461 134.934 85.3826C135.391 85.3042 135.874 85.3172 136.397 85.4348C136.789 85.5263 137.168 85.67 137.56 85.8922C137.939 86.1012 138.279 86.4018 138.54 86.7677C138.344 87.0944 138.07 87.3949 137.73 87.6432C137.39 87.9045 136.998 88.1267 136.554 88.3096L137.325 90.2305C137.743 90.1521 138.096 89.9953 138.409 89.7601C138.723 89.5248 138.971 89.2504 139.18 88.9107C139.389 88.5709 139.533 88.2051 139.625 87.8C139.782 87.0944 139.755 86.4279 139.559 85.7746C139.363 85.1212 138.997 84.5724 138.475 84.115L138.488 84.1281Z" fill="#F8F7E5"/>
<path d="M136.88 92.4649L131.902 90.7139C131.902 90.6224 131.902 90.5571 131.902 90.4525C131.902 90.0867 131.876 89.76 131.81 89.4594L131.288 89.3288L130.922 90.3741L130.765 90.8315L130.36 91.9814L129.628 94.046L130.334 94.3596C130.477 94.2289 130.621 94.0721 130.778 93.8761C130.935 93.6801 131.078 93.4841 131.209 93.275C131.274 93.1574 131.34 93.066 131.392 92.9614L134.45 94.0329C134.45 94.0329 134.463 94.0591 134.476 94.0721C134.698 94.425 134.868 94.7516 134.999 95.0652C135.129 95.3789 135.221 95.6925 135.286 95.993L133.509 95.6663L133.091 96.8554C133.274 96.9992 133.483 97.1429 133.718 97.2997C133.953 97.4565 134.202 97.6003 134.463 97.7309C134.724 97.8616 134.972 97.9792 135.221 98.0838C135.469 98.1883 135.678 98.2798 135.874 98.332C136.149 98.1622 136.358 97.9139 136.527 97.6003C136.684 97.2867 136.763 96.9208 136.75 96.5288L135.678 94.4772L136.789 94.8692L137.756 94.3858C137.886 93.9415 137.991 93.4711 138.069 92.9745C138.148 92.491 138.174 92.0206 138.161 91.5763L137.416 91.4326L136.893 92.491L136.88 92.4649Z" fill="#F8F7E5"/>
<path d="M128.87 104.486C129.654 104.878 130.399 105.061 131.091 105.022C131.784 104.983 132.398 104.774 132.934 104.408C133.47 104.042 133.888 103.559 134.188 102.958C134.489 102.356 134.632 101.729 134.606 101.076C134.593 100.423 134.397 99.7953 134.018 99.2203C133.639 98.6454 133.077 98.1488 132.307 97.7699C131.549 97.3909 130.817 97.2211 130.098 97.2733C129.379 97.3256 128.752 97.5347 128.203 97.9136C127.655 98.2926 127.223 98.7891 126.923 99.3902C126.622 99.9913 126.492 100.605 126.518 101.246C126.544 101.886 126.753 102.487 127.132 103.062C127.511 103.637 128.086 104.107 128.87 104.499V104.486ZM128.021 100.057C128.19 99.7038 128.452 99.4817 128.791 99.3902C129.131 99.2857 129.523 99.2857 129.954 99.3902C130.386 99.4947 130.83 99.6385 131.287 99.8737C131.732 100.096 132.124 100.344 132.463 100.605C132.803 100.88 133.051 101.154 133.195 101.429C133.221 101.546 133.221 101.677 133.195 101.834C133.169 101.977 133.117 102.134 133.051 102.265C132.895 102.592 132.633 102.801 132.293 102.879C131.954 102.958 131.562 102.944 131.117 102.84C130.673 102.735 130.216 102.566 129.745 102.33C129.471 102.187 129.183 102.03 128.909 101.847C128.635 101.664 128.399 101.468 128.217 101.259C128.034 101.05 127.916 100.828 127.877 100.579C127.903 100.396 127.968 100.227 128.047 100.07L128.021 100.057Z" fill="#F8F7E5"/>
<path d="M133.18 109.544L125.548 104.67C125.575 104.578 125.601 104.487 125.627 104.382C125.705 104.029 125.758 103.703 125.771 103.389L125.3 103.141L124.686 104.108L123.458 106.042L122.883 106.943L123.497 107.414C123.758 107.283 124.046 107.1 124.333 106.852C124.399 106.8 124.438 106.747 124.49 106.708L132.592 111.883L133.611 111.595C133.846 111.19 134.055 110.759 134.238 110.289C134.421 109.831 134.552 109.374 134.656 108.943L133.951 108.616L133.206 109.544H133.18Z" fill="#F8F7E5"/>
<path d="M129.773 114.6L122.573 109.099C122.6 109.007 122.639 108.916 122.678 108.824C122.796 108.471 122.861 108.158 122.9 107.844L122.443 107.557L121.75 108.471L120.365 110.288L119.712 111.137L120.287 111.66C120.561 111.555 120.862 111.399 121.162 111.176C121.227 111.124 121.267 111.085 121.332 111.046L128.963 116.887L129.996 116.691C130.27 116.299 130.505 115.894 130.727 115.449C130.949 115.005 131.119 114.574 131.25 114.143L130.571 113.764L129.76 114.626L129.773 114.6Z" fill="#F8F7E5"/>
<path d="M119.528 125.77L117.869 123.941C118.156 123.784 118.444 123.614 118.705 123.366C119.175 122.947 119.515 122.49 119.75 121.994C119.973 121.497 120.103 120.987 120.116 120.465C120.129 119.942 120.038 119.432 119.855 118.936C119.659 118.439 119.385 117.982 119.019 117.577C118.548 117.054 118.012 116.675 117.385 116.414C116.771 116.166 116.144 116.074 115.517 116.166C114.889 116.257 114.301 116.545 113.779 117.028L113.321 119.171C113.099 119.067 112.877 118.988 112.642 118.962C112.381 118.936 112.132 118.936 111.91 118.975C111.688 119.014 111.505 119.106 111.374 119.223L110.63 121.249L111.204 121.68C111.296 121.562 111.387 121.458 111.466 121.353C111.544 121.249 111.623 121.17 111.714 121.092C111.806 121.014 111.897 120.974 111.989 120.974C112.093 120.974 112.171 121.014 112.237 121.092L118.352 127.848H119.411C119.75 127.508 120.064 127.142 120.365 126.75C120.665 126.358 120.913 125.953 121.109 125.561L120.508 125.064L119.554 125.757L119.528 125.77ZM114.497 118.74C114.772 118.492 115.072 118.361 115.412 118.348C115.752 118.335 116.092 118.413 116.444 118.596C116.797 118.779 117.111 119.027 117.411 119.354C117.738 119.72 117.999 120.125 118.182 120.569C118.365 121.014 118.444 121.445 118.391 121.863C118.13 122.15 117.83 122.386 117.503 122.542C117.281 122.647 117.059 122.725 116.836 122.778L113.936 119.563C113.936 119.563 113.936 119.537 113.949 119.524C114.118 119.171 114.314 118.91 114.51 118.727L114.497 118.74Z" fill="#F8F7E5"/>
<path d="M110.417 122.346C109.776 122.045 109.11 121.915 108.444 121.98C107.777 122.045 107.163 122.267 106.601 122.646C106.052 123.025 105.634 123.496 105.347 124.071C105.059 124.646 104.942 125.273 105.007 125.952C105.059 126.632 105.334 127.338 105.83 128.056C106.327 128.775 106.889 129.298 107.516 129.598C108.143 129.899 108.783 130.029 109.424 129.964C110.077 129.899 110.665 129.677 111.227 129.298C111.776 128.919 112.207 128.435 112.507 127.86C112.808 127.272 112.939 126.645 112.899 125.952C112.86 125.26 112.586 124.554 112.102 123.849C111.619 123.156 111.057 122.646 110.417 122.346ZM110.9 127.834C110.809 127.952 110.691 128.056 110.56 128.148C110.26 128.357 109.933 128.409 109.593 128.318C109.254 128.226 108.914 128.017 108.587 127.716C108.261 127.416 107.934 127.037 107.633 126.606C107.45 126.344 107.294 126.07 107.137 125.769C106.98 125.469 106.876 125.195 106.81 124.92C106.745 124.646 106.758 124.397 106.836 124.162C106.954 124.018 107.085 123.901 107.228 123.796C107.542 123.574 107.882 123.509 108.221 123.587C108.561 123.666 108.901 123.849 109.241 124.149C109.58 124.45 109.881 124.802 110.168 125.221C110.443 125.626 110.665 126.031 110.835 126.436C111.005 126.841 111.083 127.194 111.07 127.507C111.031 127.625 110.966 127.743 110.874 127.86L110.9 127.834Z" fill="#F8F7E5"/>
<path d="M107.281 131.782L106.942 131.037H105.975L101.401 126.281C101.192 126.333 100.957 126.411 100.695 126.529C100.434 126.646 100.186 126.777 99.9375 126.934C99.6892 127.078 99.4932 127.235 99.3364 127.391L99.441 130.122L97.4678 128.136C97.2718 128.188 97.0497 128.267 96.7883 128.384C96.527 128.502 96.2918 128.633 96.0435 128.776C95.7952 128.92 95.5992 129.077 95.4293 129.234L96.2264 135.807C96.2264 135.807 96.1219 135.924 96.0696 135.976C95.9259 136.146 95.7952 136.316 95.6646 136.499L96.0043 137.113L97.8337 136.251L98.5393 135.911L99.4018 135.506L99.062 134.761H98.2126L96.9451 130.344L97.0758 130.279L97.9644 131.534L100.865 134.735L102.838 133.559L100.826 131.534L100.604 128.593L100.748 128.528L101.702 129.783L103.91 132.226C103.91 132.226 103.884 132.252 103.871 132.278C103.727 132.448 103.583 132.631 103.453 132.801L103.805 133.415L104.629 133.023L104.851 132.919L107.255 131.782H107.281Z" fill="#F8F7E5"/>
<path d="M93.065 136.736L91.693 131.626C91.7714 131.574 91.8237 131.548 91.9151 131.496C92.2157 131.287 92.4639 131.077 92.673 130.855L92.4901 130.359L90.9482 130.777L89.4062 131.195L88.3739 131.469L88.5177 132.227C88.8051 132.319 89.1057 132.371 89.4454 132.397C89.4716 132.397 89.5108 132.397 89.5369 132.397L90.6607 136.566C90.4777 136.762 90.2948 136.945 90.0988 137.088C89.8636 137.271 89.6414 137.402 89.4324 137.454C89.1188 137.546 88.8443 137.493 88.5961 137.31C88.3478 137.114 88.1518 136.762 88.0211 136.252L87.0933 132.815C87.3939 132.606 87.6422 132.397 87.8512 132.175L87.6683 131.679L86.1264 132.097L84.6236 132.502L83.6044 132.776L83.7481 133.534C84.0356 133.626 84.3623 133.665 84.7543 133.678C84.8197 133.678 84.8719 133.678 84.9373 133.678L85.8258 137.01C85.9304 137.415 86.0349 137.729 86.1133 137.977C86.1917 138.212 86.2701 138.395 86.3224 138.539C86.3877 138.669 86.4531 138.774 86.5315 138.839C86.7405 139.035 86.9627 139.179 87.224 139.271C87.4854 139.362 87.7336 139.414 87.995 139.44C88.2432 139.453 88.4785 139.44 88.6875 139.401C88.975 139.244 89.2756 139.009 89.6153 138.696C89.955 138.382 90.3079 138.016 90.6607 137.585C90.726 137.506 90.7913 137.402 90.8567 137.324L91.0396 138.029L91.9935 138.565C92.4378 138.421 92.8952 138.238 93.3394 138.029C93.7837 137.807 94.1888 137.572 94.5547 137.31L94.2541 136.618L93.0781 136.788L93.065 136.736Z" fill="#F8F7E5"/>
<path d="M76.7021 133.167C76.493 133.05 76.3101 132.971 76.1533 132.919C75.9311 133.089 75.7351 133.324 75.5391 133.625C75.3431 133.925 75.2124 134.213 75.134 134.474C75.2385 134.605 75.3823 134.736 75.5391 134.879C75.709 135.023 75.8919 135.141 76.0879 135.271C76.2839 135.389 76.4799 135.48 76.6629 135.52C76.8719 135.376 77.0679 135.154 77.264 134.853C77.46 134.553 77.6168 134.252 77.7344 133.951C77.6168 133.821 77.46 133.677 77.277 133.546C77.0941 133.416 76.885 133.285 76.689 133.167H76.7021Z" fill="#F8F7E5"/>
</g>
<defs>
<clipPath id="clip0_1926_1156">
<rect width="88" height="88" fill="white" transform="matrix(-1 0 0 -1 116 116)"/>
</clipPath>
<clipPath id="clip1_1926_1156">
<rect width="144" height="144" fill="white" transform="matrix(-1 0 0 -1 144 144)"/>
</clipPath>
</defs>
</svg>
