<svg width="223" height="46" viewBox="0 0 223 46" fill="none" xmlns="http://www.w3.org/2000/svg">
<path d="M218.671 33C216.271 33 214.431 32.48 213.151 31.44C211.898 30.4 211.271 28.7467 211.271 26.48V7.12002C211.271 6.64002 211.551 6.25335 212.111 5.96002C212.671 5.66669 213.245 5.52002 213.831 5.52002C214.471 5.52002 215.058 5.66669 215.591 5.96002C216.151 6.25335 216.431 6.64002 216.431 7.12002V14H221.151C221.578 14 221.898 14.2 222.111 14.6C222.351 14.9734 222.471 15.4 222.471 15.88C222.471 16.36 222.351 16.8 222.111 17.2C221.898 17.5734 221.578 17.76 221.151 17.76H216.431V26.48C216.431 27.28 216.591 27.84 216.911 28.16C217.258 28.48 217.845 28.64 218.671 28.64H220.231C220.978 28.64 221.525 28.8667 221.871 29.32C222.245 29.7734 222.431 30.2667 222.431 30.8C222.431 31.36 222.245 31.8667 221.871 32.32C221.525 32.7734 220.978 33 220.231 33H218.671Z" fill="black"/>
<path d="M204.389 32.9999C203.642 32.9999 203.029 32.8266 202.549 32.4799C202.069 32.1333 201.829 31.7466 201.829 31.3199V4.51992C201.829 4.03992 202.069 3.65326 202.549 3.35992C203.029 3.06659 203.642 2.91992 204.389 2.91992C205.109 2.91992 205.722 3.06659 206.229 3.35992C206.736 3.65326 206.989 4.03992 206.989 4.51992V31.3199C206.989 31.7466 206.736 32.1333 206.229 32.4799C205.722 32.8266 205.109 32.9999 204.389 32.9999Z" fill="black"/>
<path d="M186.721 33.3598C185.307 33.3598 184.081 32.9331 183.041 32.0798C182.027 31.1998 181.521 29.8531 181.521 28.0398C181.521 26.5198 181.907 25.3331 182.681 24.4798C183.481 23.6264 184.574 23.0264 185.961 22.6798C187.374 22.3331 189.001 22.1598 190.841 22.1598H192.481V21.6398C192.481 21.0531 192.361 20.4798 192.121 19.9198C191.907 19.3598 191.547 18.8931 191.041 18.5198C190.561 18.1464 189.867 17.9598 188.961 17.9598C187.947 17.9598 187.161 18.0664 186.601 18.2798C186.067 18.4664 185.654 18.6664 185.361 18.8798C185.067 19.0931 184.747 19.1998 184.401 19.1998C183.841 19.1998 183.401 18.9198 183.081 18.3598C182.787 17.7998 182.641 17.2264 182.641 16.6398C182.641 16.0798 182.974 15.5864 183.641 15.1598C184.334 14.7064 185.174 14.3598 186.161 14.1198C187.147 13.8798 188.107 13.7598 189.041 13.7598C191.121 13.7598 192.787 14.1331 194.041 14.8798C195.294 15.6264 196.201 16.5864 196.761 17.7598C197.347 18.9331 197.641 20.1998 197.641 21.5598V31.3198C197.641 31.7998 197.401 32.1998 196.921 32.5198C196.441 32.8398 195.841 32.9998 195.121 32.9998C194.454 32.9998 193.894 32.8398 193.441 32.5198C193.014 32.1998 192.801 31.7998 192.801 31.3198V30.1998C192.081 31.0264 191.227 31.7598 190.241 32.3998C189.281 33.0398 188.107 33.3598 186.721 33.3598ZM188.801 29.5198C189.361 29.5198 189.921 29.3331 190.481 28.9598C191.041 28.5864 191.507 28.1064 191.881 27.5198C192.281 26.9331 192.481 26.3198 192.481 25.6798V24.8398H191.881C191.001 24.8398 190.161 24.8931 189.361 24.9998C188.561 25.1064 187.907 25.3464 187.401 25.7198C186.921 26.0664 186.681 26.6131 186.681 27.3598C186.681 28.1064 186.881 28.6531 187.281 28.9998C187.707 29.3464 188.214 29.5198 188.801 29.5198Z" fill="black"/>
<path d="M176.211 33C173.811 33 171.971 32.48 170.691 31.44C169.437 30.4 168.811 28.7467 168.811 26.48V7.12002C168.811 6.64002 169.091 6.25335 169.651 5.96002C170.211 5.66669 170.784 5.52002 171.371 5.52002C172.011 5.52002 172.597 5.66669 173.131 5.96002C173.691 6.25335 173.971 6.64002 173.971 7.12002V14H178.691C179.117 14 179.437 14.2 179.651 14.6C179.891 14.9734 180.011 15.4 180.011 15.88C180.011 16.36 179.891 16.8 179.651 17.2C179.437 17.5734 179.117 17.76 178.691 17.76H173.971V26.48C173.971 27.28 174.131 27.84 174.451 28.16C174.797 28.48 175.384 28.64 176.211 28.64H177.771C178.517 28.64 179.064 28.8667 179.411 29.32C179.784 29.7734 179.971 30.2667 179.971 30.8C179.971 31.36 179.784 31.8667 179.411 32.32C179.064 32.7734 178.517 33 177.771 33H176.211Z" fill="black"/>
<path d="M158.411 33.3598C157.078 33.3598 155.851 33.1998 154.731 32.8798C153.638 32.5331 152.771 32.0931 152.131 31.5598C151.518 31.0264 151.211 30.4798 151.211 29.9198C151.211 29.6264 151.278 29.3064 151.411 28.9598C151.571 28.6131 151.771 28.3064 152.011 28.0398C152.278 27.7731 152.584 27.6398 152.931 27.6398C153.304 27.6398 153.691 27.7998 154.091 28.1198C154.518 28.4131 155.038 28.7064 155.651 28.9998C156.291 29.2931 157.171 29.4398 158.291 29.4398C159.491 29.4398 160.278 29.2531 160.651 28.8798C161.051 28.5064 161.251 28.1198 161.251 27.7198C161.251 27.1331 161.011 26.6798 160.531 26.3598C160.078 26.0398 159.491 25.7864 158.771 25.5998C158.051 25.3864 157.278 25.1598 156.451 24.9198C155.651 24.6798 154.891 24.3731 154.171 23.9998C153.451 23.5998 152.864 23.0664 152.411 22.3998C151.958 21.7064 151.731 20.8131 151.731 19.7198C151.731 18.7598 151.958 17.8264 152.411 16.9198C152.864 16.0131 153.611 15.2664 154.651 14.6798C155.691 14.0664 157.104 13.7598 158.891 13.7598C159.984 13.7598 161.011 13.8798 161.971 14.1198C162.958 14.3331 163.758 14.6398 164.371 15.0398C164.984 15.4398 165.291 15.8798 165.291 16.3598C165.291 16.5998 165.211 16.9198 165.051 17.3198C164.891 17.6931 164.664 18.0398 164.371 18.3598C164.104 18.6798 163.771 18.8398 163.371 18.8398C163.078 18.8398 162.718 18.7464 162.291 18.5598C161.891 18.3464 161.424 18.1464 160.891 17.9598C160.358 17.7731 159.718 17.6798 158.971 17.6798C158.304 17.6798 157.771 17.7731 157.371 17.9598C156.971 18.1464 156.678 18.3731 156.491 18.6398C156.304 18.9064 156.211 19.1864 156.211 19.4798C156.211 19.9598 156.438 20.3331 156.891 20.5998C157.344 20.8664 157.931 21.0931 158.651 21.2798C159.398 21.4664 160.171 21.6798 160.971 21.9198C161.798 22.1331 162.571 22.4531 163.291 22.8798C164.038 23.3064 164.638 23.8931 165.091 24.6398C165.544 25.3598 165.771 26.3064 165.771 27.4798C165.771 29.2664 165.131 30.6931 163.851 31.7598C162.598 32.8264 160.784 33.3598 158.411 33.3598Z" fill="black"/>
<path d="M141.757 33.3598C139.864 33.3598 138.184 33.0264 136.717 32.3598C135.277 31.6664 134.144 30.7064 133.317 29.4798C132.49 28.2264 132.077 26.7864 132.077 25.1598V21.7598C132.077 20.3198 132.464 18.9998 133.237 17.7998C134.037 16.5731 135.09 15.5998 136.397 14.8798C137.73 14.1331 139.21 13.7598 140.837 13.7598C142.33 13.7598 143.69 14.0798 144.917 14.7198C146.17 15.3598 147.184 16.2398 147.957 17.3598C148.73 18.4798 149.117 19.7864 149.117 21.2798C149.117 22.4264 148.93 23.2531 148.557 23.7598C148.184 24.2398 147.704 24.5464 147.117 24.6798C146.557 24.7864 145.97 24.8398 145.357 24.8398H137.237V25.4398C137.237 26.5864 137.664 27.5198 138.517 28.2398C139.397 28.9331 140.53 29.2798 141.917 29.2798C142.797 29.2798 143.53 29.1464 144.117 28.8798C144.704 28.6131 145.21 28.3598 145.637 28.1198C146.064 27.8798 146.464 27.7598 146.837 27.7598C147.237 27.7598 147.584 27.8931 147.877 28.1598C148.17 28.4264 148.397 28.7464 148.557 29.1198C148.717 29.4664 148.797 29.7731 148.797 30.0398C148.797 30.4931 148.504 30.9864 147.917 31.5198C147.357 32.0264 146.544 32.4664 145.477 32.8398C144.437 33.1864 143.197 33.3598 141.757 33.3598ZM137.237 21.7998H143.077C143.53 21.7998 143.837 21.7331 143.997 21.5998C144.184 21.4398 144.277 21.1464 144.277 20.7198C144.277 20.1064 144.104 19.5598 143.757 19.0798C143.437 18.5998 143.01 18.2264 142.477 17.9598C141.97 17.6931 141.397 17.5598 140.757 17.5598C140.144 17.5598 139.57 17.6931 139.037 17.9598C138.504 18.1998 138.064 18.5598 137.717 19.0398C137.397 19.4931 137.237 20.0398 137.237 20.6798V21.7998Z" fill="black"/>
<path d="M121.566 41.8402C119.992 41.8402 118.526 41.6135 117.166 41.1602C115.832 40.7335 114.752 40.0935 113.926 39.2402C113.126 38.3869 112.726 37.3735 112.726 36.2002C112.726 35.1869 113.006 34.3202 113.566 33.6002C114.126 32.9069 114.819 32.3602 115.646 31.9602C115.139 31.7202 114.726 31.4002 114.406 31.0002C114.112 30.5735 113.966 30.0402 113.966 29.4002C113.966 28.6535 114.152 28.0535 114.526 27.6002C114.926 27.1202 115.419 26.6802 116.006 26.2802C115.206 25.6669 114.579 24.9335 114.126 24.0802C113.699 23.2002 113.486 22.2402 113.486 21.2002V20.3602C113.486 19.0535 113.806 17.9069 114.446 16.9202C115.112 15.9335 116.032 15.1602 117.206 14.6002C118.406 14.0402 119.779 13.7602 121.326 13.7602C122.206 13.7602 123.032 13.8669 123.806 14.0802C124.579 14.2669 125.272 14.5469 125.886 14.9202C126.339 13.8535 126.766 13.1335 127.166 12.7602C127.566 12.3869 127.952 12.2002 128.326 12.2002C128.966 12.2002 129.459 12.3869 129.806 12.7602C130.179 13.1335 130.366 13.4802 130.366 13.8002C130.366 14.0402 130.299 14.2535 130.166 14.4402C130.059 14.6269 129.912 14.7869 129.726 14.9202C129.459 15.0802 129.152 15.2802 128.806 15.5202C128.459 15.7335 128.139 16.0402 127.846 16.4402C128.326 16.9735 128.672 17.5735 128.886 18.2402C129.126 18.8802 129.246 19.5869 129.246 20.3602V21.2002C129.246 22.4802 128.912 23.6269 128.246 24.6402C127.579 25.6269 126.646 26.4135 125.446 27.0002C124.246 27.5869 122.872 27.8802 121.326 27.8802C120.366 27.8802 119.499 27.7602 118.726 27.5202C118.592 27.6269 118.472 27.7469 118.366 27.8802C118.286 28.0135 118.246 28.1602 118.246 28.3202C118.246 28.7735 118.539 29.0935 119.126 29.2802C119.712 29.4669 120.459 29.6135 121.366 29.7202C122.272 29.8269 123.232 29.9735 124.246 30.1602C125.286 30.3202 126.259 30.5869 127.166 30.9602C128.072 31.3335 128.819 31.8935 129.406 32.6402C129.992 33.3602 130.286 34.3335 130.286 35.5602C130.286 37.0535 129.859 38.2535 129.006 39.1602C128.179 40.0935 127.099 40.7735 125.766 41.2002C124.459 41.6269 123.059 41.8402 121.566 41.8402ZM121.486 38.5202C122.526 38.5202 123.406 38.2669 124.126 37.7602C124.872 37.2535 125.246 36.5735 125.246 35.7202C125.246 35.1602 125.086 34.7069 124.766 34.3602C124.446 34.0135 124.006 33.7469 123.446 33.5602C122.912 33.4002 122.326 33.2669 121.686 33.1602C121.046 33.0802 120.406 33.0002 119.766 32.9202C119.126 33.2135 118.606 33.5869 118.206 34.0402C117.806 34.4935 117.606 35.0402 117.606 35.6802C117.606 36.5602 117.979 37.2535 118.726 37.7602C119.499 38.2669 120.419 38.5202 121.486 38.5202ZM121.406 24.7602C122.286 24.7602 122.979 24.4269 123.486 23.7602C123.992 23.0935 124.246 22.2402 124.246 21.2002V20.3602C124.246 19.3735 123.992 18.5469 123.486 17.8802C123.006 17.2135 122.299 16.8802 121.366 16.8802C120.459 16.8802 119.752 17.2135 119.246 17.8802C118.766 18.5469 118.526 19.3735 118.526 20.3602V21.1602C118.526 22.1735 118.766 23.0269 119.246 23.7202C119.752 24.4135 120.472 24.7602 121.406 24.7602Z" fill="black"/>
<path d="M84.5366 32.9998C83.7899 32.9998 83.1766 32.8264 82.6966 32.4798C82.2166 32.1331 81.9766 31.7464 81.9766 31.3198V15.5998C81.9766 15.1198 82.2166 14.7331 82.6966 14.4398C83.1766 14.1464 83.7899 13.9998 84.5366 13.9998C85.1766 13.9998 85.7099 14.1464 86.1366 14.4398C86.5899 14.7331 86.8166 15.1198 86.8166 15.5998V16.7998C87.2699 16.0264 87.9366 15.3331 88.8166 14.7198C89.6966 14.0798 90.8032 13.7598 92.1366 13.7598C93.2832 13.7598 94.2966 14.1331 95.1766 14.8798C96.0566 15.6264 96.7099 16.5864 97.1366 17.7598C97.8299 16.3998 98.7099 15.3998 99.7766 14.7598C100.87 14.0931 101.99 13.7598 103.137 13.7598C104.363 13.7598 105.51 14.0798 106.577 14.7198C107.67 15.3331 108.55 16.2531 109.217 17.4798C109.91 18.6798 110.257 20.1464 110.257 21.8798V31.3198C110.257 31.7464 110.003 32.1331 109.497 32.4798C108.99 32.8264 108.377 32.9998 107.657 32.9998C106.963 32.9998 106.363 32.8264 105.857 32.4798C105.35 32.1331 105.097 31.7464 105.097 31.3198V21.8798C105.097 21.0798 104.937 20.4131 104.617 19.8798C104.323 19.3464 103.923 18.9464 103.417 18.6798C102.91 18.3864 102.39 18.2398 101.857 18.2398C101.35 18.2398 100.857 18.3864 100.377 18.6798C99.8966 18.9464 99.4966 19.3464 99.1766 19.8798C98.8566 20.4131 98.6966 21.0664 98.6966 21.8398V31.3598C98.6966 31.9464 98.4166 32.3731 97.8566 32.6398C97.3232 32.8798 96.7366 32.9998 96.0966 32.9998C95.5099 32.9998 94.9366 32.8798 94.3766 32.6398C93.8166 32.3731 93.5366 31.9464 93.5366 31.3598V21.8798C93.5366 21.1331 93.3766 20.4931 93.0566 19.9598C92.7632 19.4264 92.3632 19.0131 91.8566 18.7198C91.3766 18.4264 90.8566 18.2798 90.2966 18.2798C89.7632 18.2798 89.2566 18.4131 88.7766 18.6798C88.2966 18.9464 87.8966 19.3464 87.5766 19.8798C87.2832 20.4131 87.1366 21.0798 87.1366 21.8798V31.3198C87.1366 31.7464 86.8832 32.1331 86.3766 32.4798C85.8699 32.8264 85.2566 32.9998 84.5366 32.9998Z" fill="black"/>
<path d="M69.5198 33.36C67.9198 33.36 66.4531 32.9867 65.1198 32.24C63.8131 31.4667 62.7598 30.4667 61.9598 29.24C61.1865 27.9867 60.7998 26.6533 60.7998 25.24V15.64C60.7998 15.24 61.0531 14.8667 61.5598 14.52C62.0931 14.1733 62.7065 14 63.3998 14C64.0931 14 64.6931 14.1733 65.1998 14.52C65.7065 14.8667 65.9598 15.24 65.9598 15.64V25.24C65.9598 25.8533 66.1198 26.4267 66.4398 26.96C66.7598 27.4933 67.1865 27.9467 67.7198 28.32C68.2531 28.6667 68.8398 28.84 69.4798 28.84C70.1465 28.84 70.7331 28.6667 71.2398 28.32C71.7731 27.9733 72.1998 27.52 72.5198 26.96C72.8398 26.4 72.9998 25.8267 72.9998 25.24V15.6C72.9998 15.1733 73.2531 14.8 73.7598 14.48C74.2931 14.16 74.8931 14 75.5598 14C76.3331 14 76.9598 14.16 77.4398 14.48C77.9198 14.8 78.1598 15.1733 78.1598 15.6V25.24C78.1598 26.68 77.7598 28.0267 76.9598 29.28C76.1865 30.5067 75.1331 31.4933 73.7998 32.24C72.4931 32.9867 71.0665 33.36 69.5198 33.36Z" fill="black"/>
<path d="M13.1929 30.9273C12.3878 33.3584 9.51306 34.7266 8.1428 35.2082C8.45818 36.2233 11.0437 38.2818 14.1324 38.3743C17.2212 38.4667 20.638 37.9173 22.5647 35.421C24.4913 32.9247 23.9853 30.8387 23.1176 29.0493C22.2499 27.2598 20.3697 26.658 18.72 26.6437C17.0703 26.6295 14.1323 28.0911 13.1929 30.9273Z" fill="#FF834F"/>
<path d="M34.09 8.46398L20.1036 24.8101C22.8287 24.9989 24.6235 27.5814 25.1803 28.8491L38.5755 11.776C39.0584 11.0901 39.6023 9.39317 37.9145 8.09288C36.2268 6.79259 34.6616 7.79849 34.09 8.46398Z" fill="#FF834F"/>
<path d="M29.2672 36.1005L29.2672 35.2779L29.2415 34.738C30.7325 34.8923 32.2663 34.9522 33.8429 34.918C35.4196 34.8837 36.962 34.918 38.4701 35.0208C38.5387 34.2667 38.5901 33.4613 38.6244 32.6044C38.6586 31.7475 38.6758 30.8906 38.6758 30.0337C38.7101 29.1768 38.7358 28.3628 38.7529 27.5916C38.77 26.8204 38.8129 26.1435 38.8814 25.5608C39.1385 25.6122 39.4298 25.6465 39.7555 25.6636C40.0982 25.6636 40.4324 25.655 40.758 25.6379C41.1008 25.6379 41.4264 25.6379 41.7349 25.6379C42.0776 25.6379 42.369 25.6722 42.6089 25.7407C42.6089 26.2206 42.6003 26.709 42.5832 27.206C42.5832 27.6859 42.5746 28.1914 42.5575 28.7227C42.5403 29.5282 42.5232 30.3679 42.5061 31.2419C42.5061 32.0988 42.4975 32.9643 42.4804 33.8383C42.4804 34.6952 42.4632 35.5349 42.4289 36.3575C42.4118 37.163 42.3604 37.9342 42.2747 38.6711C41.1265 38.8254 40.004 38.9025 38.9071 38.9025C37.8275 38.9196 36.7564 38.9111 35.6938 38.8768C34.6313 38.8425 33.5687 38.7911 32.5062 38.7225C31.4779 38.654 30.4411 38.6283 29.3957 38.6454L29.3443 38.6454C29.31 38.1656 29.2843 37.78 29.2672 37.4886C29.2672 37.1801 29.2586 36.9316 29.2415 36.7431C29.2415 36.5718 29.2415 36.4347 29.2415 36.3318C29.2586 36.2461 29.2672 36.169 29.2672 36.1005Z" fill="#FF834F"/>
<path d="M10.2091 15.065C10.176 16.642 10.2371 18.1762 10.3924 19.6676L9.85243 19.6415L9.02965 19.6409C8.96108 19.6409 8.87538 19.6408 8.77253 19.6407C8.66968 19.6406 8.53256 19.6405 8.36114 19.6404C8.18973 19.6403 7.94975 19.6401 7.64121 19.6399C7.3498 19.6226 6.96411 19.5966 6.48413 19.562L6.48409 19.5105C6.50049 18.4649 6.46546 17.4193 6.37901 16.3736C6.32685 15.328 6.28324 14.2738 6.2482 13.211C6.21316 12.1482 6.19525 11.0683 6.19447 9.97126C6.19369 8.87422 6.2786 7.76011 6.44921 6.62891C7.18622 6.54373 7.95754 6.49286 8.76316 6.47629C9.58591 6.44259 10.4258 6.42605 11.2829 6.42666C12.1571 6.41014 13.0227 6.40219 13.8797 6.4028C14.7539 6.38628 15.5938 6.36973 16.3995 6.35317C16.9308 6.3364 17.4365 6.32819 17.9164 6.32854C18.4135 6.31175 18.902 6.30353 19.382 6.30387C19.4507 6.54389 19.4766 6.82674 19.4597 7.15241C19.46 7.46095 19.4602 7.78663 19.4604 8.12946C19.4607 8.47228 19.4609 8.8151 19.4612 9.15793C19.4785 9.48362 19.513 9.77505 19.5646 10.0322C18.9819 10.1004 18.3048 10.1427 17.5335 10.1593C16.7622 10.1759 15.9394 10.1925 15.0652 10.209C14.2253 10.2255 13.3682 10.2421 12.4941 10.2586C11.637 10.2922 10.84 10.3517 10.103 10.4369C10.2069 11.9454 10.2423 13.4881 10.2091 15.065Z" fill="#FF834F"/>
</svg>
