<svg width="88" height="88" viewBox="0 0 88 88" fill="none" xmlns="http://www.w3.org/2000/svg">
<path d="M0 49.942L1.67807 57.1116L26.4543 52.1027L6.95905 68.3571L11.5491 74.1027L31.7353 58.8795L21.2227 81.9107L27.8856 85.1027L39.4347 62.7098L40.0269 88H47.4302L48.0224 62.808L59.6209 85.3482L66.2838 82.1562L55.8205 59.2232L76.1054 74.5446L80.6955 68.75L61.2989 52.5938L86.2232 57.6518L87.9013 50.4821L63.3225 44.2946L88 38.058L86.3713 30.8884L61.5457 35.8973L81.0409 19.6429L76.4509 13.8973L56.2647 29.1205L66.7773 6.08929L60.1144 2.89732L48.5653 25.3393L47.9731 0H40.5698L39.9776 25.192L28.4285 2.65179L21.7162 5.84376L32.1795 28.7768L11.8946 13.4554L7.30454 19.25L26.7011 35.4062L1.77678 30.3482L0.148064 37.5179L24.6775 43.7054L0 49.942Z" fill="#F9AF42"/>
</svg>
