<svg width="120" height="120" viewBox="0 0 120 120" fill="none" xmlns="http://www.w3.org/2000/svg">
<path d="M0 68.1027L2.28828 77.8795L36.074 71.0491L9.48962 93.2143L15.7487 101.049L43.2754 80.2902L28.94 111.696L38.0258 116.049L53.7745 85.5134L54.5822 120L64.6775 120L65.4851 85.6473L81.3012 116.384L90.387 112.031L76.1189 80.7589L103.78 101.652L110.039 93.75L83.5895 71.7188L117.577 78.6161L119.865 68.8393L86.3489 60.4018L120 51.8973L117.779 42.1205L83.926 48.9509L110.51 26.7857L104.251 18.9509L76.7246 39.7098L91.06 8.30357L81.9742 3.95089L66.2255 34.5536L65.4178 -7.62939e-06L55.3225 -7.62939e-06L54.5149 34.3527L38.7661 3.61607L29.613 7.96875L43.8811 39.2411L16.2199 18.3482L9.96074 26.25L36.4105 48.2812L2.42289 41.3839L0.201912 51.1607L33.6512 59.5982L0 68.1027Z" fill="#FF834F"/>
</svg>
