<svg width="20" height="20" viewBox="0 0 20 20" fill="none" xmlns="http://www.w3.org/2000/svg">
<path d="M20 8.64955L19.6186 7.02009L13.9877 8.15848L18.4184 4.46429L17.3752 3.15848L12.7874 6.6183L15.1767 1.38393L13.6624 0.658482L11.0376 5.74777L10.903 0H9.22042L9.08581 5.72545L6.4498 0.602679L4.9355 1.32813L7.31352 6.54018L2.70331 3.05804L1.66012 4.375L6.06842 8.04688L0.403814 6.89732L0.0224341 8.52679L5.60853 9.93304L0 11.3504L0.370163 12.9799L6.01234 11.8415L1.5816 15.5357L2.62479 16.8415L7.21256 13.3817L4.82333 18.6161L6.33763 19.3415L8.96242 14.2411L9.09703 20H10.7796L10.9142 14.2746L13.539 19.3973L15.0645 18.6719L12.6865 13.4598L17.2967 16.942L18.3399 15.625L13.9316 11.9531L19.5962 13.1027L19.9663 11.4732L14.3915 10.067L20 8.64955Z" fill="#FF834F"/>
</svg>
