<svg width="263" height="263" viewBox="0 0 263 263" fill="none" xmlns="http://www.w3.org/2000/svg">
<path d="M263 149.258L257.985 170.686L183.938 155.716L242.202 204.295L228.484 221.466L168.155 175.969L199.573 244.801L179.66 254.341L145.144 187.417L143.374 263H121.248L119.478 187.71L84.8149 255.075L64.9019 245.535L96.1727 176.997L35.5485 222.787L21.8306 205.469L79.7998 157.184L5.31015 172.3L0.295008 150.873L73.7521 132.381L0 113.742L4.86764 92.3142L79.0623 107.284L20.7981 58.7054L34.516 41.534L94.8452 87.0307L63.4268 18.1987L83.3399 8.65904L117.856 75.7299L119.626 1.32169e-06H141.752L143.522 75.2896L178.038 7.92524L198.098 17.4649L166.827 86.0033L227.451 40.2132L241.169 57.5313L183.2 105.816L257.69 90.6998L262.557 112.127L189.248 130.619L263 149.258Z" fill="#679AAC"/>
</svg>
